<svg version="1.1" viewBox="0.0 0.0 600.0 371.0" fill="none" stroke="none" stroke-linecap="square" stroke-miterlimit="10" width="600" height="371" xmlns:xlink="http://www.w3.org/1999/xlink" xmlns="http://www.w3.org/2000/svg"><path fill="#ffffff" d="M0 0L600.0 0L600.0 371.0L0 371.0L0 0Z" fill-rule="nonzero"/><path stroke="#333333" stroke-width="1.0" stroke-linecap="butt" d="M65.5 66.5L65.5 300.5" fill-rule="nonzero"/><path stroke="#cccccc" stroke-width="1.0" stroke-linecap="butt" d="M194.5 66.5L194.5 300.5" fill-rule="nonzero"/><path stroke="#cccccc" stroke-width="1.0" stroke-linecap="butt" d="M323.5 66.5L323.5 300.5" fill-rule="nonzero"/><path stroke="#cccccc" stroke-width="1.0" stroke-linecap="butt" d="M452.5 66.5L452.5 300.5" fill-rule="nonzero"/><path stroke="#cccccc" stroke-width="1.0" stroke-linecap="butt" d="M581.5 66.5L581.5 300.5" fill-rule="nonzero"/><clipPath id="id_0"><path d="M65.55 66.166664L581.45 66.166664L581.45 300.45L65.55 300.45L65.55 66.166664Z" clip-rule="nonzero"/></clipPath><path stroke="#000000" stroke-width="2.0" stroke-linecap="butt" stroke-opacity="0.0" clip-path="url(#id_0)" d="M66.0 110.0L66.0 82.0L502.0 82.0C503.10458 82.0 504.0 82.89543 504.0 84.0L504.0 108.0C504.0 109.10457 503.10458 110.0 502.0 110.0Z" fill-rule="nonzero"/><path fill="#e53935" clip-path="url(#id_0)" d="M66.0 110.0L66.0 82.0L502.0 82.0C503.10458 82.0 504.0 82.89543 504.0 84.0L504.0 108.0C504.0 109.10457 503.10458 110.0 502.0 110.0Z" fill-rule="nonzero"/><path stroke="#000000" stroke-width="2.0" stroke-linecap="butt" stroke-opacity="0.0" clip-path="url(#id_0)" d="M66.0 154.0L66.0 126.0L389.0 126.0C390.10458 126.0 391.0 126.89543 391.0 128.0L391.0 152.0C391.0 153.10457 390.10458 154.0 389.0 154.0Z" fill-rule="nonzero"/><path fill="#e53935" clip-path="url(#id_0)" d="M66.0 154.0L66.0 126.0L389.0 126.0C390.10458 126.0 391.0 126.89543 391.0 128.0L391.0 152.0C391.0 153.10457 390.10458 154.0 389.0 154.0Z" fill-rule="nonzero"/><path stroke="#000000" stroke-width="2.0" stroke-linecap="butt" stroke-opacity="0.0" clip-path="url(#id_0)" d="M66.0 197.0L66.0 169.0L476.0 169.0C477.10458 169.0 478.0 169.89543 478.0 171.0L478.0 195.0C478.0 196.10457 477.10458 197.0 476.0 197.0Z" fill-rule="nonzero"/><path fill="#e53935" clip-path="url(#id_0)" d="M66.0 197.0L66.0 169.0L476.0 169.0C477.10458 169.0 478.0 169.89543 478.0 171.0L478.0 195.0C478.0 196.10457 477.10458 197.0 476.0 197.0Z" fill-rule="nonzero"/><path stroke="#000000" stroke-width="2.0" stroke-linecap="butt" stroke-opacity="0.0" clip-path="url(#id_0)" d="M66.0 241.0L66.0 213.0L493.0 213.0C494.10458 213.0 495.0 213.89543 495.0 215.0L495.0 239.0C495.0 240.10457 494.10458 241.0 493.0 241.0Z" fill-rule="nonzero"/><path fill="#e53935" clip-path="url(#id_0)" d="M66.0 241.0L66.0 213.0L493.0 213.0C494.10458 213.0 495.0 213.89543 495.0 215.0L495.0 239.0C495.0 240.10457 494.10458 241.0 493.0 241.0Z" fill-rule="nonzero"/><path stroke="#000000" stroke-width="2.0" stroke-linecap="butt" stroke-opacity="0.0" clip-path="url(#id_0)" d="M66.0 285.0L66.0 257.0L547.0 257.0C548.10455 257.0 549.0 257.89542 549.0 259.0L549.0 283.0C549.0 284.10458 548.10455 285.0 547.0 285.0Z" fill-rule="nonzero"/><path fill="#e53935" clip-path="url(#id_0)" d="M66.0 285.0L66.0 257.0L547.0 257.0C548.10455 257.0 549.0 257.89542 549.0 259.0L549.0 283.0C549.0 284.10458 548.10455 285.0 547.0 285.0Z" fill-rule="nonzero"/><path fill="#000000" d="M289.60938 349.45L289.60938 341.8719L286.78125 341.8719L286.78125 340.85626L293.59375 340.85626L293.59375 341.8719L290.75 341.8719L290.75 349.45L289.60938 349.45ZM298.35938 348.6844Q297.76562 349.1844 297.21875 349.3875Q296.6875 349.59064 296.0625 349.59064Q295.03125 349.59064 294.48438 349.09064Q293.9375 348.59064 293.9375 347.8094Q293.9375 347.35626 294.14062 346.98126Q294.34375 346.59064 294.6875 346.3719Q295.03125 346.1375 295.45312 346.02814Q295.75 345.9344 296.39062 345.85626Q297.65625 345.71564 298.26562 345.4969Q298.26562 345.27814 298.26562 345.23126Q298.26562 344.575 297.96875 344.3094Q297.5625 343.96564 296.76562 343.96564Q296.03125 343.96564 295.67188 344.23126Q295.3125 344.48126 295.14062 345.1375L294.10938 344.9969Q294.25 344.34064 294.57812 343.9344Q294.90625 343.52814 295.51562 343.3094Q296.125 343.09064 296.92188 343.09064Q297.71875 343.09064 298.21875 343.27814Q298.71875 343.46564 298.95312 343.7469Q299.1875 344.02814 299.28125 344.46564Q299.32812 344.73126 299.32812 345.4344L299.32812 346.84064Q299.32812 348.3094 299.39062 348.7Q299.46875 349.09064 299.67188 349.45L298.5625 349.45Q298.40625 349.1219 298.35938 348.6844ZM298.26562 346.325Q297.6875 346.5594 296.54688 346.73126Q295.89062 346.825 295.625 346.95Q295.35938 347.0594 295.20312 347.27814Q295.0625 347.4969 295.0625 347.77814Q295.0625 348.2 295.375 348.48126Q295.70312 348.7625 296.3125 348.7625Q296.92188 348.7625 297.39062 348.4969Q297.875 348.23126 298.09375 347.7625Q298.26562 347.40314 298.26562 346.71564L298.26562 346.325ZM300.875 347.59064L301.90625 347.4344Q302.0 348.0594 302.39062 348.3875Q302.79688 348.71564 303.53125 348.71564Q304.25 348.71564 304.59375 348.4344Q304.95312 348.1375 304.95312 347.73126Q304.95312 347.3719 304.64062 347.16876Q304.42188 347.02814 303.5625 346.8094Q302.40625 346.5125 301.95312 346.3094Q301.51562 346.09064 301.28125 345.71564Q301.04688 345.34064 301.04688 344.8719Q301.04688 344.46564 301.23438 344.10626Q301.42188 343.7469 301.75 343.5125Q302.0 343.34064 302.42188 343.21564Q302.84375 343.09064 303.34375 343.09064Q304.0625 343.09064 304.60938 343.3094Q305.17188 343.5125 305.4375 343.8719Q305.70312 344.23126 305.79688 344.825L304.76562 344.96564Q304.70312 344.4969 304.35938 344.23126Q304.03125 343.95 303.40625 343.95Q302.6875 343.95 302.375 344.2Q302.0625 344.4344 302.0625 344.7625Q302.0625 344.96564 302.1875 345.1219Q302.32812 345.29376 302.59375 345.40314Q302.75 345.46564 303.53125 345.66876Q304.65625 345.98126 305.09375 346.16876Q305.53125 346.35626 305.78125 346.71564Q306.03125 347.075 306.03125 347.6219Q306.03125 348.15314 305.71875 348.6219Q305.42188 349.075 304.84375 349.34064Q304.26562 349.59064 303.53125 349.59064Q302.3125 349.59064 301.67188 349.09064Q301.04688 348.575 300.875 347.59064ZM312.35938 348.6844Q311.76562 349.1844 311.21875 349.3875Q310.6875 349.59064 310.0625 349.59064Q309.03125 349.59064 308.48438 349.09064Q307.9375 348.59064 307.9375 347.8094Q307.9375 347.35626 308.14062 346.98126Q308.34375 346.59064 308.6875 346.3719Q309.03125 346.1375 309.45312 346.02814Q309.75 345.9344 310.39062 345.85626Q311.65625 345.71564 312.26562 345.4969Q312.26562 345.27814 312.26562 345.23126Q312.26562 344.575 311.96875 344.3094Q311.5625 343.96564 310.76562 343.96564Q310.03125 343.96564 309.67188 344.23126Q309.3125 344.48126 309.14062 345.1375L308.10938 344.9969Q308.25 344.34064 308.57812 343.9344Q308.90625 343.52814 309.51562 343.3094Q310.125 343.09064 310.92188 343.09064Q311.71875 343.09064 312.21875 343.27814Q312.71875 343.46564 312.95312 343.7469Q313.1875 344.02814 313.28125 344.46564Q313.32812 344.73126 313.32812 345.4344L313.32812 346.84064Q313.32812 348.3094 313.39062 348.7Q313.46875 349.09064 313.67188 349.45L312.5625 349.45Q312.40625 349.1219 312.35938 348.6844ZM312.26562 346.325Q311.6875 346.5594 310.54688 346.73126Q309.89062 346.825 309.625 346.95Q309.35938 347.0594 309.20312 347.27814Q309.0625 347.4969 309.0625 347.77814Q309.0625 348.2 309.375 348.48126Q309.70312 348.7625 310.3125 348.7625Q310.92188 348.7625 311.39062 348.4969Q311.875 348.23126 312.09375 347.7625Q312.26562 347.40314 312.26562 346.71564L312.26562 346.325ZM322.32812 349.45L322.32812 348.66876Q321.73438 349.59064 320.59375 349.59064Q319.84375 349.59064 319.21875 349.1844Q318.59375 348.7625 318.25 348.02814Q317.90625 347.29376 317.90625 346.34064Q317.90625 345.41876 318.21875 344.65314Q318.53125 343.8875 319.15625 343.4969Q319.78125 343.09064 320.54688 343.09064Q321.10938 343.09064 321.54688 343.325Q321.98438 343.5594 322.26562 343.9344L322.26562 340.85626L323.3125 340.85626L323.3125 349.45L322.32812 349.45ZM319.0 346.34064Q319.0 347.54376 319.5 348.1375Q320.0 348.71564 320.6875 348.71564Q321.375 348.71564 321.85938 348.15314Q322.34375 347.59064 322.34375 346.4344Q322.34375 345.15314 321.84375 344.5594Q321.35938 343.96564 320.64062 343.96564Q319.9375 343.96564 319.46875 344.54376Q319.0 345.10626 319.0 346.34064ZM329.54688 347.45L330.64062 347.575Q330.39062 348.52814 329.6875 349.0594Q328.98438 349.59064 327.90625 349.59064Q326.54688 349.59064 325.73438 348.7469Q324.9375 347.90314 324.9375 346.3875Q324.9375 344.825 325.75 343.96564Q326.5625 343.09064 327.84375 343.09064Q329.09375 343.09064 329.875 343.9344Q330.67188 344.77814 330.67188 346.325Q330.67188 346.41876 330.67188 346.60626L326.03125 346.60626Q326.09375 347.6375 326.60938 348.1844Q327.125 348.71564 327.90625 348.71564Q328.48438 348.71564 328.89062 348.41876Q329.3125 348.10626 329.54688 347.45ZM326.09375 345.7469L329.5625 345.7469Q329.5 344.95 329.17188 344.5594Q328.65625 343.95 327.85938 343.95Q327.125 343.95 326.625 344.4344Q326.14062 344.91876 326.09375 345.7469ZM339.54688 347.45L340.64062 347.575Q340.39062 348.52814 339.6875 349.0594Q338.98438 349.59064 337.90625 349.59064Q336.54688 349.59064 335.73438 348.7469Q334.9375 347.90314 334.9375 346.3875Q334.9375 344.825 335.75 343.96564Q336.5625 343.09064 337.84375 343.09064Q339.09375 343.09064 339.875 343.9344Q340.67188 344.77814 340.67188 346.325Q340.67188 346.41876 340.67188 346.60626L336.03125 346.60626Q336.09375 347.6375 336.60938 348.1844Q337.125 348.71564 337.90625 348.71564Q338.48438 348.71564 338.89062 348.41876Q339.3125 348.10626 339.54688 347.45ZM336.09375 345.7469L339.5625 345.7469Q339.5 344.95 339.17188 344.5594Q338.65625 343.95 337.85938 343.95Q337.125 343.95 336.625 344.4344Q336.14062 344.91876 336.09375 345.7469ZM342.28125 349.45L342.28125 343.23126L343.23438 343.23126L343.23438 344.16876Q343.59375 343.5125 343.89062 343.3094Q344.20312 343.09064 344.57812 343.09064Q345.10938 343.09064 345.65625 343.41876L345.29688 344.40314Q344.90625 344.16876 344.53125 344.16876Q344.17188 344.16876 343.89062 344.3875Q343.625 344.59064 343.51562 344.96564Q343.32812 345.52814 343.32812 346.1844L343.32812 349.45L342.28125 349.45ZM346.28125 349.45L346.28125 343.23126L347.23438 343.23126L347.23438 344.16876Q347.59375 343.5125 347.89062 343.3094Q348.20312 343.09064 348.57812 343.09064Q349.10938 343.09064 349.65625 343.41876L349.29688 344.40314Q348.90625 344.16876 348.53125 344.16876Q348.17188 344.16876 347.89062 344.3875Q347.625 344.59064 347.51562 344.96564Q347.32812 345.52814 347.32812 346.1844L347.32812 349.45L346.28125 349.45ZM349.90625 346.34064Q349.90625 344.60626 350.85938 343.77814Q351.65625 343.09064 352.8125 343.09064Q354.09375 343.09064 354.90625 343.9344Q355.73438 344.7625 355.73438 346.2469Q355.73438 347.45 355.375 348.1375Q355.01562 348.825 354.3125 349.21564Q353.625 349.59064 352.8125 349.59064Q351.51562 349.59064 350.70312 348.7625Q349.90625 347.91876 349.90625 346.34064ZM350.98438 346.34064Q350.98438 347.52814 351.5 348.1219Q352.03125 348.71564 352.8125 348.71564Q353.60938 348.71564 354.125 348.1219Q354.64062 347.52814 354.64062 346.3094Q354.64062 345.15314 354.10938 344.5594Q353.59375 343.96564 352.8125 343.96564Q352.03125 343.96564 351.5 344.5594Q350.98438 345.1375 350.98438 346.34064ZM357.28125 349.45L357.28125 343.23126L358.23438 343.23126L358.23438 344.16876Q358.59375 343.5125 358.89062 343.3094Q359.20312 343.09064 359.57812 343.09064Q360.10938 343.09064 360.65625 343.41876L360.29688 344.40314Q359.90625 344.16876 359.53125 344.16876Q359.17188 344.16876 358.89062 344.3875Q358.625 344.59064 358.51562 344.96564Q358.32812 345.52814 358.32812 346.1844L358.32812 349.45L357.28125 349.45Z" fill-rule="nonzero"/><path fill="#000000" d="M25.6125 96.71015L26.7375 97.00703Q26.378124 98.39765 25.45625 99.13203Q24.534374 99.8664 23.190624 99.8664Q21.8 99.8664 20.925 99.3039Q20.05 98.7414 19.596874 97.6789Q19.14375 96.60078 19.14375 95.3664Q19.14375 94.02265 19.659374 93.02265Q20.175 92.02265 21.1125 91.50703Q22.065624 90.9914 23.20625 90.9914Q24.4875 90.9914 25.3625 91.64765Q26.253124 92.3039 26.596874 93.4914L25.471874 93.75703Q25.175 92.81953 24.596874 92.39765Q24.034374 91.96015 23.175 91.96015Q22.190624 91.96015 21.51875 92.44453Q20.8625 92.91328 20.58125 93.71015Q20.315624 94.50703 20.315624 95.3664Q20.315624 96.46015 20.628124 97.27265Q20.95625 98.08515 21.628124 98.4914Q22.3 98.89765 23.096874 98.89765Q24.05 98.89765 24.70625 98.35078Q25.378124 97.8039 25.6125 96.71015ZM27.95625 96.6164Q27.95625 94.88203 28.909374 94.0539Q29.70625 93.3664 30.8625 93.3664Q32.14375 93.3664 32.95625 94.21015Q33.784374 95.03828 33.784374 96.52265Q33.784374 97.72578 33.425 98.41328Q33.065624 99.10078 32.3625 99.4914Q31.675 99.8664 30.8625 99.8664Q29.565624 99.8664 28.753124 99.03828Q27.95625 98.19453 27.95625 96.6164ZM29.034374 96.6164Q29.034374 97.8039 29.55 98.39765Q30.08125 98.9914 30.8625 98.9914Q31.659374 98.9914 32.175 98.39765Q32.690624 97.8039 32.690624 96.58515Q32.690624 95.4289 32.159374 94.83515Q31.64375 94.2414 30.8625 94.2414Q30.08125 94.2414 29.55 94.83515Q29.034374 95.41328 29.034374 96.6164ZM35.346874 99.72578L35.346874 91.13203L36.39375 91.13203L36.39375 94.21015Q37.128124 93.3664 38.253124 93.3664Q38.95625 93.3664 39.45625 93.64765Q39.971874 93.91328 40.190624 94.39765Q40.409374 94.8664 40.409374 95.78828L40.409374 99.72578L39.3625 99.72578L39.3625 95.78828Q39.3625 94.9914 39.01875 94.63203Q38.675 94.27265 38.05 94.27265Q37.58125 94.27265 37.159374 94.52265Q36.753124 94.75703 36.565624 95.1789Q36.39375 95.58515 36.39375 96.31953L36.39375 99.72578L35.346874 99.72578ZM46.596874 97.72578L47.690624 97.85078Q47.440624 98.8039 46.7375 99.33515Q46.034374 99.8664 44.95625 99.8664Q43.596874 99.8664 42.784374 99.02265Q41.9875 98.1789 41.9875 96.66328Q41.9875 95.10078 42.8 94.2414Q43.6125 93.3664 44.89375 93.3664Q46.14375 93.3664 46.925 94.21015Q47.721874 95.0539 47.721874 96.60078Q47.721874 96.69453 47.721874 96.88203L43.08125 96.88203Q43.14375 97.91328 43.659374 98.46015Q44.175 98.9914 44.95625 98.9914Q45.534374 98.9914 45.940624 98.69453Q46.3625 98.38203 46.596874 97.72578ZM43.14375 96.02265L46.6125 96.02265Q46.55 95.22578 46.221874 94.83515Q45.70625 94.22578 44.909374 94.22578Q44.175 94.22578 43.675 94.71015Q43.190624 95.19453 43.14375 96.02265ZM49.33125 99.72578L49.33125 93.50703L50.284374 93.50703L50.284374 94.44453Q50.64375 93.78828 50.940624 93.58515Q51.253124 93.3664 51.628124 93.3664Q52.159374 93.3664 52.70625 93.69453L52.346874 94.6789Q51.95625 94.44453 51.58125 94.44453Q51.221874 94.44453 50.940624 94.66328Q50.675 94.8664 50.565624 95.2414Q50.378124 95.8039 50.378124 96.46015L50.378124 99.72578L49.33125 99.72578ZM57.596874 97.72578L58.690624 97.85078Q58.440624 98.8039 57.7375 99.33515Q57.034374 99.8664 55.95625 99.8664Q54.596874 99.8664 53.784374 99.02265Q52.9875 98.1789 52.9875 96.66328Q52.9875 95.10078 53.8 94.2414Q54.6125 93.3664 55.89375 93.3664Q57.14375 93.3664 57.925 94.21015Q58.721874 95.0539 58.721874 96.60078Q58.721874 96.69453 58.721874 96.88203L54.08125 96.88203Q54.14375 97.91328 54.659374 98.46015Q55.175 98.9914 55.95625 98.9914Q56.534374 98.9914 56.940624 98.69453Q57.3625 98.38203 57.596874 97.72578ZM54.14375 96.02265L57.6125 96.02265Q57.55 95.22578 57.221874 94.83515Q56.70625 94.22578 55.909374 94.22578Q55.175 94.22578 54.675 94.71015Q54.190624 95.19453 54.14375 96.02265Z" fill-rule="nonzero"/><path fill="#000000" d="M24.503124 140.14206L24.503124 139.14206L28.128124 139.12643L28.128124 142.31393Q27.3 142.98581 26.409374 143.32956Q25.51875 143.65768 24.58125 143.65768Q23.315624 143.65768 22.26875 143.12643Q21.2375 142.57956 20.70625 141.56393Q20.190624 140.53268 20.190624 139.26706Q20.190624 138.00143 20.70625 136.92331Q21.2375 135.82956 22.221874 135.31393Q23.20625 134.78268 24.4875 134.78268Q25.425 134.78268 26.175 135.07956Q26.925 135.37643 27.346874 135.92331Q27.784374 136.45456 28.003124 137.32956L26.9875 137.61081Q26.784374 136.95456 26.4875 136.57956Q26.20625 136.20456 25.675 135.98581Q25.14375 135.75143 24.503124 135.75143Q23.721874 135.75143 23.14375 135.98581Q22.58125 136.22018 22.221874 136.61081Q21.878124 137.00143 21.690624 137.47018Q21.3625 138.26706 21.3625 139.18893Q21.3625 140.34518 21.753124 141.12643Q22.159374 141.89206 22.909374 142.26706Q23.659374 142.64206 24.51875 142.64206Q25.253124 142.64206 25.95625 142.36081Q26.659374 142.06393 27.01875 141.75143L27.01875 140.14206L24.503124 140.14206ZM33.596874 141.51706L34.690624 141.64206Q34.440624 142.59518 33.7375 143.12643Q33.034374 143.65768 31.95625 143.65768Q30.596874 143.65768 29.784374 142.81393Q28.9875 141.97018 28.9875 140.45456Q28.9875 138.89206 29.8 138.03268Q30.6125 137.15768 31.89375 137.15768Q33.14375 137.15768 33.925 138.00143Q34.721874 138.84518 34.721874 140.39206Q34.721874 140.48581 34.721874 140.67331L30.08125 140.67331Q30.14375 141.70456 30.659374 142.25143Q31.175 142.78268 31.95625 142.78268Q32.534374 142.78268 32.940624 142.48581Q33.3625 142.17331 33.596874 141.51706ZM30.14375 139.81393L33.6125 139.81393Q33.55 139.01706 33.221874 138.62643Q32.70625 138.01706 31.909374 138.01706Q31.175 138.01706 30.675 138.50143Q30.190624 138.98581 30.14375 139.81393ZM36.346874 143.51706L36.346874 137.29831L37.284374 137.29831L37.284374 138.17331Q37.58125 137.70456 38.065624 137.43893Q38.55 137.15768 39.175 137.15768Q39.8625 137.15768 40.3 137.43893Q40.753124 137.72018 40.925 138.23581Q41.675 137.15768 42.846874 137.15768Q43.784374 137.15768 44.26875 137.67331Q44.76875 138.17331 44.76875 139.25143L44.76875 143.51706L43.721874 143.51706L43.721874 139.59518Q43.721874 138.97018 43.6125 138.68893Q43.51875 138.40768 43.253124 138.23581Q42.9875 138.06393 42.6125 138.06393Q41.95625 138.06393 41.51875 138.50143Q41.096874 138.93893 41.096874 139.90768L41.096874 143.51706L40.034374 143.51706L40.034374 139.47018Q40.034374 138.76706 39.76875 138.42331Q39.51875 138.06393 38.940624 138.06393Q38.4875 138.06393 38.1125 138.29831Q37.7375 138.53268 37.565624 138.98581Q37.39375 139.43893 37.39375 140.28268L37.39375 143.51706L36.346874 143.51706ZM47.346874 136.14206L47.346874 134.92331L48.409374 134.92331L48.409374 136.14206L47.346874 136.14206ZM47.346874 143.51706L47.346874 137.29831L48.409374 137.29831L48.409374 143.51706L47.346874 143.51706ZM50.346874 143.51706L50.346874 137.29831L51.284374 137.29831L51.284374 138.17331Q51.971874 137.15768 53.26875 137.15768Q53.83125 137.15768 54.3 137.36081Q54.784374 137.56393 55.01875 137.89206Q55.253124 138.22018 55.346874 138.65768Q55.39375 138.95456 55.39375 139.68893L55.39375 143.51706L54.346874 143.51706L54.346874 139.73581Q54.346874 139.07956 54.221874 138.76706Q54.096874 138.45456 53.784374 138.26706Q53.471874 138.06393 53.05 138.06393Q52.378124 138.06393 51.878124 138.50143Q51.39375 138.92331 51.39375 140.11081L51.39375 143.51706L50.346874 143.51706ZM57.346874 136.14206L57.346874 134.92331L58.409374 134.92331L58.409374 136.14206L57.346874 136.14206ZM57.346874 143.51706L57.346874 137.29831L58.409374 137.29831L58.409374 143.51706L57.346874 143.51706Z" fill-rule="nonzero"/><path fill="#000000" d="M34.9875 186.38646Q35.784374 186.93333 36.440624 187.18333L36.1125 187.98021Q35.190624 187.63646 34.26875 186.91771Q33.315624 187.44896 32.159374 187.44896Q30.9875 187.44896 30.034374 186.88646Q29.096874 186.32396 28.58125 185.30833Q28.065624 184.29271 28.065624 183.01146Q28.065624 181.74583 28.58125 180.69896Q29.096874 179.65208 30.05 179.10521Q31.003124 178.55833 32.175 178.55833Q33.3625 178.55833 34.315624 179.13646Q35.284374 179.69896 35.784374 180.71458Q36.284374 181.73021 36.284374 183.01146Q36.284374 184.07396 35.95625 184.91771Q35.64375 185.76146 34.9875 186.38646ZM32.4875 184.93333Q33.471874 185.21458 34.1125 185.76146Q35.1125 184.83958 35.1125 183.01146Q35.1125 181.96458 34.753124 181.18333Q34.39375 180.40208 33.70625 179.98021Q33.034374 179.54271 32.190624 179.54271Q30.909374 179.54271 30.065624 180.41771Q29.2375 181.27708 29.2375 183.01146Q29.2375 184.68333 30.065624 185.58958Q30.89375 186.48021 32.190624 186.48021Q32.8 186.48021 33.33125 186.24583Q32.8 185.90208 32.20625 185.76146L32.4875 184.93333ZM38.4875 187.30833L36.58125 181.08958L37.675 181.08958L38.659374 184.68333L39.034374 186.01146Q39.065624 185.91771 39.3625 184.73021L40.346874 181.08958L41.425 181.08958L42.3625 184.69896L42.675 185.88646L43.034374 184.68333L44.096874 181.08958L45.128124 181.08958L43.175 187.30833L42.08125 187.30833L41.096874 183.57396L40.846874 182.52708L39.596874 187.30833L38.4875 187.30833ZM50.596874 185.30833L51.690624 185.43333Q51.440624 186.38646 50.7375 186.91771Q50.034374 187.44896 48.95625 187.44896Q47.596874 187.44896 46.784374 186.60521Q45.9875 185.76146 45.9875 184.24583Q45.9875 182.68333 46.8 181.82396Q47.6125 180.94896 48.89375 180.94896Q50.14375 180.94896 50.925 181.79271Q51.721874 182.63646 51.721874 184.18333Q51.721874 184.27708 51.721874 184.46458L47.08125 184.46458Q47.14375 185.49583 47.659374 186.04271Q48.175 186.57396 48.95625 186.57396Q49.534374 186.57396 49.940624 186.27708Q50.3625 185.96458 50.596874 185.30833ZM47.14375 183.60521L50.6125 183.60521Q50.55 182.80833 50.221874 182.41771Q49.70625 181.80833 48.909374 181.80833Q48.175 181.80833 47.675 182.29271Q47.190624 182.77708 47.14375 183.60521ZM53.346874 187.30833L53.346874 181.08958L54.284374 181.08958L54.284374 181.96458Q54.971874 180.94896 56.26875 180.94896Q56.83125 180.94896 57.3 181.15208Q57.784374 181.35521 58.01875 181.68333Q58.253124 182.01146 58.346874 182.44896Q58.39375 182.74583 58.39375 183.48021L58.39375 187.30833L57.346874 187.30833L57.346874 183.52708Q57.346874 182.87083 57.221874 182.55833Q57.096874 182.24583 56.784374 182.05833Q56.471874 181.85521 56.05 181.85521Q55.378124 181.85521 54.878124 182.29271Q54.39375 182.71458 54.39375 183.90208L54.39375 187.30833L53.346874 187.30833Z" fill-rule="nonzero"/><path fill="#000000" d="M24.440624 231.09961L24.440624 222.50586L26.159374 222.50586L28.190624 228.58398Q28.471874 229.44336 28.596874 229.86523Q28.7375 229.39648 29.05 228.49023L31.1125 222.50586L32.64375 222.50586L32.64375 231.09961L31.55 231.09961L31.55 223.91211L29.05 231.09961L28.01875 231.09961L25.534374 223.78711L25.534374 231.09961L24.440624 231.09961ZM33.346874 223.72461L33.346874 222.50586L34.409374 222.50586L34.409374 223.72461L33.346874 223.72461ZM33.346874 231.09961L33.346874 224.88086L34.409374 224.88086L34.409374 231.09961L33.346874 231.09961ZM35.925 229.24023L36.95625 229.08398Q37.05 229.70898 37.440624 230.03711Q37.846874 230.36523 38.58125 230.36523Q39.3 230.36523 39.64375 230.08398Q40.003124 229.78711 40.003124 229.38086Q40.003124 229.02148 39.690624 228.81836Q39.471874 228.67773 38.6125 228.45898Q37.45625 228.16211 37.003124 227.95898Q36.565624 227.74023 36.33125 227.36523Q36.096874 226.99023 36.096874 226.52148Q36.096874 226.11523 36.284374 225.75586Q36.471874 225.39648 36.8 225.16211Q37.05 224.99023 37.471874 224.86523Q37.89375 224.74023 38.39375 224.74023Q39.1125 224.74023 39.659374 224.95898Q40.221874 225.16211 40.4875 225.52148Q40.753124 225.88086 40.846874 226.47461L39.815624 226.61523Q39.753124 226.14648 39.409374 225.88086Q39.08125 225.59961 38.45625 225.59961Q37.7375 225.59961 37.425 225.84961Q37.1125 226.08398 37.1125 226.41211Q37.1125 226.61523 37.2375 226.77148Q37.378124 226.94336 37.64375 227.05273Q37.8 227.11523 38.58125 227.31836Q39.70625 227.63086 40.14375 227.81836Q40.58125 228.00586 40.83125 228.36523Q41.08125 228.72461 41.08125 229.27148Q41.08125 229.80273 40.76875 230.27148Q40.471874 230.72461 39.89375 230.99023Q39.315624 231.24023 38.58125 231.24023Q37.3625 231.24023 36.721874 230.74023Q36.096874 230.22461 35.925 229.24023ZM45.64375 230.16211L45.8 231.08398Q45.346874 231.17773 45.003124 231.17773Q44.425 231.17773 44.1125 231.00586Q43.8 230.81836 43.659374 230.52148Q43.534374 230.22461 43.534374 229.27148L43.534374 225.69336L42.76875 225.69336L42.76875 224.88086L43.534374 224.88086L43.534374 223.33398L44.58125 222.70898L44.58125 224.88086L45.64375 224.88086L45.64375 225.69336L44.58125 225.69336L44.58125 229.33398Q44.58125 229.78711 44.628124 229.91211Q44.690624 230.03711 44.815624 230.11523Q44.940624 230.19336 45.175 230.19336Q45.3625 230.19336 45.64375 230.16211ZM46.33125 231.09961L46.33125 224.88086L47.284374 224.88086L47.284374 225.81836Q47.64375 225.16211 47.940624 224.95898Q48.253124 224.74023 48.628124 224.74023Q49.159374 224.74023 49.70625 225.06836L49.346874 226.05273Q48.95625 225.81836 48.58125 225.81836Q48.221874 225.81836 47.940624 226.03711Q47.675 226.24023 47.565624 226.61523Q47.378124 227.17773 47.378124 227.83398L47.378124 231.09961L46.33125 231.09961ZM54.409374 230.33398Q53.815624 230.83398 53.26875 231.03711Q52.7375 231.24023 52.1125 231.24023Q51.08125 231.24023 50.534374 230.74023Q49.9875 230.24023 49.9875 229.45898Q49.9875 229.00586 50.190624 228.63086Q50.39375 228.24023 50.7375 228.02148Q51.08125 227.78711 51.503124 227.67773Q51.8 227.58398 52.440624 227.50586Q53.70625 227.36523 54.315624 227.14648Q54.315624 226.92773 54.315624 226.88086Q54.315624 226.22461 54.01875 225.95898Q53.6125 225.61523 52.815624 225.61523Q52.08125 225.61523 51.721874 225.88086Q51.3625 226.13086 51.190624 226.78711L50.159374 226.64648Q50.3 225.99023 50.628124 225.58398Q50.95625 225.17773 51.565624 224.95898Q52.175 224.74023 52.971874 224.74023Q53.76875 224.74023 54.26875 224.92773Q54.76875 225.11523 55.003124 225.39648Q55.2375 225.67773 55.33125 226.11523Q55.378124 226.38086 55.378124 227.08398L55.378124 228.49023Q55.378124 229.95898 55.440624 230.34961Q55.51875 230.74023 55.721874 231.09961L54.6125 231.09961Q54.45625 230.77148 54.409374 230.33398ZM54.315624 227.97461Q53.7375 228.20898 52.596874 228.38086Q51.940624 228.47461 51.675 228.59961Q51.409374 228.70898 51.253124 228.92773Q51.1125 229.14648 51.1125 229.42773Q51.1125 229.84961 51.425 230.13086Q51.753124 230.41211 52.3625 230.41211Q52.971874 230.41211 53.440624 230.14648Q53.925 229.88086 54.14375 229.41211Q54.315624 229.05273 54.315624 228.36523L54.315624 227.97461ZM57.315624 231.09961L57.315624 222.50586L58.378124 222.50586L58.378124 231.09961L57.315624 231.09961Z" fill-rule="nonzero"/><path fill="#000000" d="M25.425 274.8909L25.425 266.29715L26.565624 266.29715L26.565624 273.87527L30.8 273.87527L30.8 274.8909L25.425 274.8909ZM32.315624 274.8909L32.315624 266.29715L33.378124 266.29715L33.378124 274.8909L32.315624 274.8909ZM39.409374 274.12527Q38.815624 274.62527 38.26875 274.8284Q37.7375 275.03152 37.1125 275.03152Q36.08125 275.03152 35.534374 274.53152Q34.9875 274.03152 34.9875 273.25027Q34.9875 272.79715 35.190624 272.42215Q35.39375 272.03152 35.7375 271.81277Q36.08125 271.5784 36.503124 271.46902Q36.8 271.37527 37.440624 271.29715Q38.70625 271.15652 39.315624 270.93777Q39.315624 270.71902 39.315624 270.67215Q39.315624 270.0159 39.01875 269.75027Q38.6125 269.40652 37.815624 269.40652Q37.08125 269.40652 36.721874 269.67215Q36.3625 269.92215 36.190624 270.5784L35.159374 270.43777Q35.3 269.78152 35.628124 269.37527Q35.95625 268.96902 36.565624 268.75027Q37.175 268.53152 37.971874 268.53152Q38.76875 268.53152 39.26875 268.71902Q39.76875 268.90652 40.003124 269.18777Q40.2375 269.46902 40.33125 269.90652Q40.378124 270.17215 40.378124 270.87527L40.378124 272.28152Q40.378124 273.75027 40.440624 274.1409Q40.51875 274.53152 40.721874 274.8909L39.6125 274.8909Q39.45625 274.56277 39.409374 274.12527ZM39.315624 271.7659Q38.7375 272.00027 37.596874 272.17215Q36.940624 272.2659 36.675 272.3909Q36.409374 272.50027 36.253124 272.71902Q36.1125 272.93777 36.1125 273.21902Q36.1125 273.6409 36.425 273.92215Q36.753124 274.2034 37.3625 274.2034Q37.971874 274.2034 38.440624 273.93777Q38.925 273.67215 39.14375 273.2034Q39.315624 272.84402 39.315624 272.15652L39.315624 271.7659ZM42.346874 274.8909L42.346874 268.67215L43.284374 268.67215L43.284374 269.54715Q43.58125 269.0784 44.065624 268.81277Q44.55 268.53152 45.175 268.53152Q45.8625 268.53152 46.3 268.81277Q46.753124 269.09402 46.925 269.60965Q47.675 268.53152 48.846874 268.53152Q49.784374 268.53152 50.26875 269.04715Q50.76875 269.54715 50.76875 270.62527L50.76875 274.8909L49.721874 274.8909L49.721874 270.96902Q49.721874 270.34402 49.6125 270.06277Q49.51875 269.78152 49.253124 269.60965Q48.9875 269.43777 48.6125 269.43777Q47.95625 269.43777 47.51875 269.87527Q47.096874 270.31277 47.096874 271.28152L47.096874 274.8909L46.034374 274.8909L46.034374 270.84402Q46.034374 270.1409 45.76875 269.79715Q45.51875 269.43777 44.940624 269.43777Q44.4875 269.43777 44.1125 269.67215Q43.7375 269.90652 43.565624 270.35965Q43.39375 270.81277 43.39375 271.65652L43.39375 274.8909L42.346874 274.8909ZM57.409374 274.12527Q56.815624 274.62527 56.26875 274.8284Q55.7375 275.03152 55.1125 275.03152Q54.08125 275.03152 53.534374 274.53152Q52.9875 274.03152 52.9875 273.25027Q52.9875 272.79715 53.190624 272.42215Q53.39375 272.03152 53.7375 271.81277Q54.08125 271.5784 54.503124 271.46902Q54.8 271.37527 55.440624 271.29715Q56.70625 271.15652 57.315624 270.93777Q57.315624 270.71902 57.315624 270.67215Q57.315624 270.0159 57.01875 269.75027Q56.6125 269.40652 55.815624 269.40652Q55.08125 269.40652 54.721874 269.67215Q54.3625 269.92215 54.190624 270.5784L53.159374 270.43777Q53.3 269.78152 53.628124 269.37527Q53.95625 268.96902 54.565624 268.75027Q55.175 268.53152 55.971874 268.53152Q56.76875 268.53152 57.26875 268.71902Q57.76875 268.90652 58.003124 269.18777Q58.2375 269.46902 58.33125 269.90652Q58.378124 270.17215 58.378124 270.87527L58.378124 272.28152Q58.378124 273.75027 58.440624 274.1409Q58.51875 274.53152 58.721874 274.8909L57.6125 274.8909Q57.45625 274.56277 57.409374 274.12527ZM57.315624 271.7659Q56.7375 272.00027 55.596874 272.17215Q54.940624 272.2659 54.675 272.3909Q54.409374 272.50027 54.253124 272.71902Q54.1125 272.93777 54.1125 273.21902Q54.1125 273.6409 54.425 273.92215Q54.753124 274.2034 55.3625 274.2034Q55.971874 274.2034 56.440624 273.93777Q56.925 273.67215 57.14375 273.2034Q57.315624 272.84402 57.315624 272.15652L57.315624 271.7659Z" fill-rule="nonzero"/><path fill="#000000" d="M62.55 313.21564Q62.55 311.6844 62.8625 310.7625Q63.175 309.825 63.784374 309.325Q64.40938 308.825 65.34688 308.825Q66.03438 308.825 66.55 309.10626Q67.08125 309.3875 67.425 309.91876Q67.76875 310.4344 67.95625 311.1844Q68.14375 311.9344 68.14375 313.21564Q68.14375 314.73126 67.83125 315.65314Q67.53438 316.575 66.90938 317.09064Q66.3 317.59064 65.34688 317.59064Q64.1125 317.59064 63.39375 316.7Q62.55 315.6375 62.55 313.21564ZM63.628124 313.21564Q63.628124 315.325 64.12813 316.02814Q64.62813 316.73126 65.34688 316.73126Q66.08125 316.73126 66.56563 316.02814Q67.06563 315.325 67.06563 313.21564Q67.06563 311.09064 66.56563 310.40314Q66.08125 309.7 65.33125 309.7Q64.6125 309.7 64.175 310.3094Q63.628124 311.09064 63.628124 313.21564Z" fill-rule="nonzero"/><path fill="#000000" d="M193.57187 316.4344L193.57187 317.45L187.88437 317.45Q187.88437 317.075 188.00937 316.71564Q188.22812 316.1375 188.69687 315.575Q189.18124 315.0125 190.0875 314.27814Q191.49374 313.1219 191.97812 312.45Q192.47812 311.77814 192.47812 311.1844Q192.47812 310.5594 192.025 310.1375Q191.57187 309.7 190.85312 309.7Q190.0875 309.7 189.63437 310.15314Q189.18124 310.60626 189.16562 311.41876L188.0875 311.3094Q188.19687 310.09064 188.91562 309.46564Q189.65 308.825 190.88437 308.825Q192.11874 308.825 192.8375 309.5125Q193.55624 310.2 193.55624 311.21564Q193.55624 311.73126 193.3375 312.23126Q193.13437 312.71564 192.63437 313.27814Q192.15 313.825 191.025 314.77814Q190.07187 315.575 189.79062 315.8719Q189.525 316.15314 189.35312 316.4344L193.57187 316.4344ZM195.025 315.2L196.13437 315.10626Q196.25937 315.91876 196.69687 316.325Q197.15 316.73126 197.79062 316.73126Q198.54062 316.73126 199.07187 316.15314Q199.60312 315.575 199.60312 314.6375Q199.60312 313.73126 199.0875 313.21564Q198.5875 312.6844 197.75937 312.6844Q197.25937 312.6844 196.8375 312.91876Q196.43124 313.15314 196.19687 313.5125L195.2125 313.3875L196.04062 308.98126L200.32187 308.98126L200.32187 309.98126L196.88437 309.98126L196.43124 312.29376Q197.19687 311.7469 198.04062 311.7469Q199.16562 311.7469 199.93124 312.52814Q200.7125 313.3094 200.7125 314.54376Q200.7125 315.7 200.04062 316.5594Q199.2125 317.59064 197.79062 317.59064Q196.61874 317.59064 195.86874 316.9344Q195.13437 316.27814 195.025 315.2Z" fill-rule="nonzero"/><path fill="#000000" d="M317.0 315.2L318.10938 315.10626Q318.23438 315.91876 318.67188 316.325Q319.125 316.73126 319.76562 316.73126Q320.51562 316.73126 321.04688 316.15314Q321.57812 315.575 321.57812 314.6375Q321.57812 313.73126 321.0625 313.21564Q320.5625 312.6844 319.73438 312.6844Q319.23438 312.6844 318.8125 312.91876Q318.40625 313.15314 318.17188 313.5125L317.1875 313.3875L318.01562 308.98126L322.29688 308.98126L322.29688 309.98126L318.85938 309.98126L318.40625 312.29376Q319.17188 311.7469 320.01562 311.7469Q321.14062 311.7469 321.90625 312.52814Q322.6875 313.3094 322.6875 314.54376Q322.6875 315.7 322.01562 316.5594Q321.1875 317.59064 319.76562 317.59064Q318.59375 317.59064 317.84375 316.9344Q317.10938 316.27814 317.0 315.2ZM324.0 313.21564Q324.0 311.6844 324.3125 310.7625Q324.625 309.825 325.23438 309.325Q325.85938 308.825 326.79688 308.825Q327.48438 308.825 328.0 309.10626Q328.53125 309.3875 328.875 309.91876Q329.21875 310.4344 329.40625 311.1844Q329.59375 311.9344 329.59375 313.21564Q329.59375 314.73126 329.28125 315.65314Q328.98438 316.575 328.35938 317.09064Q327.75 317.59064 326.79688 317.59064Q325.5625 317.59064 324.84375 316.7Q324.0 315.6375 324.0 313.21564ZM325.07812 313.21564Q325.07812 315.325 325.57812 316.02814Q326.07812 316.73126 326.79688 316.73126Q327.53125 316.73126 328.01562 316.02814Q328.51562 315.325 328.51562 313.21564Q328.51562 311.09064 328.01562 310.40314Q327.53125 309.7 326.78125 309.7Q326.0625 309.7 325.625 310.3094Q325.07812 311.09064 325.07812 313.21564Z" fill-rule="nonzero"/><path fill="#000000" d="M446.0375 309.98126L446.0375 308.96564L451.6 308.96564L451.6 309.79376Q450.7875 310.66876 449.975 312.1219Q449.17813 313.5594 448.74063 315.09064Q448.4125 316.16876 448.33438 317.45L447.24063 317.45Q447.25626 316.4344 447.63126 314.9969Q448.02188 313.5594 448.725 312.23126Q449.44376 310.90314 450.25626 309.98126L446.0375 309.98126ZM452.975 315.2L454.08438 315.10626Q454.20938 315.91876 454.64688 316.325Q455.1 316.73126 455.74063 316.73126Q456.49063 316.73126 457.02188 316.15314Q457.55313 315.575 457.55313 314.6375Q457.55313 313.73126 457.0375 313.21564Q456.5375 312.6844 455.70938 312.6844Q455.20938 312.6844 454.7875 312.91876Q454.38126 313.15314 454.14688 313.5125L453.1625 313.3875L453.99063 308.98126L458.27188 308.98126L458.27188 309.98126L454.83438 309.98126L454.38126 312.29376Q455.14688 311.7469 455.99063 311.7469Q457.11563 311.7469 457.88126 312.52814Q458.6625 313.3094 458.6625 314.54376Q458.6625 315.7 457.99063 316.5594Q457.1625 317.59064 455.74063 317.59064Q454.56876 317.59064 453.81876 316.9344Q453.08438 316.27814 452.975 315.2Z" fill-rule="nonzero"/><path fill="#000000" d="M575.41876 317.45L574.3719 317.45L574.3719 310.73126Q573.98126 311.09064 573.35626 311.46564Q572.7469 311.825 572.2625 311.9969L572.2625 310.98126Q573.1375 310.5594 573.79376 309.98126Q574.46564 309.3875 574.7469 308.825L575.41876 308.825L575.41876 317.45ZM578.45 313.21564Q578.45 311.6844 578.7625 310.7625Q579.075 309.825 579.6844 309.325Q580.3094 308.825 581.2469 308.825Q581.9344 308.825 582.45 309.10626Q582.98126 309.3875 583.325 309.91876Q583.66876 310.4344 583.85626 311.1844Q584.04376 311.9344 584.04376 313.21564Q584.04376 314.73126 583.73126 315.65314Q583.4344 316.575 582.8094 317.09064Q582.2 317.59064 581.2469 317.59064Q580.0125 317.59064 579.29376 316.7Q578.45 315.6375 578.45 313.21564ZM579.52814 313.21564Q579.52814 315.325 580.02814 316.02814Q580.52814 316.73126 581.2469 316.73126Q581.98126 316.73126 582.46564 316.02814Q582.96564 315.325 582.96564 313.21564Q582.96564 311.09064 582.46564 310.40314Q581.98126 309.7 581.23126 309.7Q580.5125 309.7 580.075 310.3094Q579.52814 311.09064 579.52814 313.21564ZM585.45 313.21564Q585.45 311.6844 585.7625 310.7625Q586.075 309.825 586.6844 309.325Q587.3094 308.825 588.2469 308.825Q588.9344 308.825 589.45 309.10626Q589.98126 309.3875 590.325 309.91876Q590.66876 310.4344 590.85626 311.1844Q591.04376 311.9344 591.04376 313.21564Q591.04376 314.73126 590.73126 315.65314Q590.4344 316.575 589.8094 317.09064Q589.2 317.59064 588.2469 317.59064Q587.0125 317.59064 586.29376 316.7Q585.45 315.6375 585.45 313.21564ZM586.52814 313.21564Q586.52814 315.325 587.02814 316.02814Q587.52814 316.73126 588.2469 316.73126Q588.98126 316.73126 589.46564 316.02814Q589.96564 315.325 589.96564 313.21564Q589.96564 311.09064 589.46564 310.40314Q588.98126 309.7 588.23126 309.7Q587.5125 309.7 587.075 310.3094Q586.52814 311.09064 586.52814 313.21564Z" fill-rule="nonzero"/><path fill="#434343" d="M94.890625 50.8L94.890625 42.20625L96.609375 42.20625L98.640625 48.284374Q98.921875 49.14375 99.046875 49.565624Q99.1875 49.096874 99.5 48.190624L101.5625 42.20625L103.09375 42.20625L103.09375 50.8L102.0 50.8L102.0 43.6125L99.5 50.8L98.46875 50.8L95.984375 43.4875L95.984375 50.8L94.890625 50.8ZM103.40625 47.690624Q103.40625 45.95625 104.359375 45.128124Q105.15625 44.440624 106.3125 44.440624Q107.59375 44.440624 108.40625 45.284374Q109.234375 46.1125 109.234375 47.596874Q109.234375 48.8 108.875 49.4875Q108.515625 50.175 107.8125 50.565624Q107.125 50.940624 106.3125 50.940624Q105.015625 50.940624 104.203125 50.1125Q103.40625 49.26875 103.40625 47.690624ZM104.484375 47.690624Q104.484375 48.878124 105.0 49.471874Q105.53125 50.065624 106.3125 50.065624Q107.109375 50.065624 107.625 49.471874Q108.140625 48.878124 108.140625 47.659374Q108.140625 46.503124 107.609375 45.909374Q107.09375 45.315624 106.3125 45.315624Q105.53125 45.315624 105.0 45.909374Q104.484375 46.4875 104.484375 47.690624ZM110.375 48.940624L111.40625 48.784374Q111.5 49.409374 111.890625 49.7375Q112.296875 50.065624 113.03125 50.065624Q113.75 50.065624 114.09375 49.784374Q114.453125 49.4875 114.453125 49.08125Q114.453125 48.721874 114.140625 48.51875Q113.921875 48.378124 113.0625 48.159374Q111.90625 47.8625 111.453125 47.659374Q111.015625 47.440624 110.78125 47.065624Q110.546875 46.690624 110.546875 46.221874Q110.546875 45.815624 110.734375 45.45625Q110.921875 45.096874 111.25 44.8625Q111.5 44.690624 111.921875 44.565624Q112.34375 44.440624 112.84375 44.440624Q113.5625 44.440624 114.109375 44.659374Q114.671875 44.8625 114.9375 45.221874Q115.203125 45.58125 115.296875 46.175L114.265625 46.315624Q114.203125 45.846874 113.859375 45.58125Q113.53125 45.3 112.90625 45.3Q112.1875 45.3 111.875 45.55Q111.5625 45.784374 111.5625 46.1125Q111.5625 46.315624 111.6875 46.471874Q111.828125 46.64375 112.09375 46.753124Q112.25 46.815624 113.03125 47.01875Q114.15625 47.33125 114.59375 47.51875Q115.03125 47.70625 115.28125 48.065624Q115.53125 48.425 115.53125 48.971874Q115.53125 49.503124 115.21875 49.971874Q114.921875 50.425 114.34375 50.690624Q113.765625 50.940624 113.03125 50.940624Q111.8125 50.940624 111.171875 50.440624Q110.546875 49.925 110.375 48.940624ZM120.09375 49.8625L120.25 50.784374Q119.796875 50.878124 119.453125 50.878124Q118.875 50.878124 118.5625 50.70625Q118.25 50.51875 118.109375 50.221874Q117.984375 49.925 117.984375 48.971874L117.984375 45.39375L117.21875 45.39375L117.21875 44.58125L117.984375 44.58125L117.984375 43.034374L119.03125 42.409374L119.03125 44.58125L120.09375 44.58125L120.09375 45.39375L119.03125 45.39375L119.03125 49.034374Q119.03125 49.4875 119.078125 49.6125Q119.140625 49.7375 119.265625 49.815624Q119.390625 49.89375 119.625 49.89375Q119.8125 49.89375 120.09375 49.8625ZM120.78125 50.8L120.78125 44.58125L121.734375 44.58125L121.734375 45.51875Q122.09375 44.8625 122.390625 44.659374Q122.703125 44.440624 123.078125 44.440624Q123.609375 44.440624 124.15625 44.76875L123.796875 45.753124Q123.40625 45.51875 123.03125 45.51875Q122.671875 45.51875 122.390625 45.7375Q122.125 45.940624 122.015625 46.315624Q121.828125 46.878124 121.828125 47.534374L121.828125 50.8L120.78125 50.8ZM128.85938 50.034374Q128.26562 50.534374 127.71875 50.7375Q127.1875 50.940624 126.5625 50.940624Q125.53125 50.940624 124.984375 50.440624Q124.4375 49.940624 124.4375 49.159374Q124.4375 48.70625 124.640625 48.33125Q124.84375 47.940624 125.1875 47.721874Q125.53125 47.4875 125.953125 47.378124Q126.25 47.284374 126.890625 47.20625Q128.15625 47.065624 128.76562 46.846874Q128.76562 46.628124 128.76562 46.58125Q128.76562 45.925 128.46875 45.659374Q128.0625 45.315624 127.265625 45.315624Q126.53125 45.315624 126.171875 45.58125Q125.8125 45.83125 125.640625 46.4875L124.609375 46.346874Q124.75 45.690624 125.078125 45.284374Q125.40625 44.878124 126.015625 44.659374Q126.625 44.440624 127.421875 44.440624Q128.21875 44.440624 128.71875 44.628124Q129.21875 44.815624 129.45312 45.096874Q129.6875 45.378124 129.78125 45.815624Q129.82812 46.08125 129.82812 46.784374L129.82812 48.190624Q129.82812 49.659374 129.89062 50.05Q129.96875 50.440624 130.17188 50.8L129.0625 50.8Q128.90625 50.471874 128.85938 50.034374ZM128.76562 47.675Q128.1875 47.909374 127.046875 48.08125Q126.390625 48.175 126.125 48.3Q125.859375 48.409374 125.703125 48.628124Q125.5625 48.846874 125.5625 49.128124Q125.5625 49.55 125.875 49.83125Q126.203125 50.1125 126.8125 50.1125Q127.421875 50.1125 127.890625 49.846874Q128.375 49.58125 128.59375 49.1125Q128.76562 48.753124 128.76562 48.065624L128.76562 47.675ZM131.78125 50.8L131.78125 44.58125L132.73438 44.58125L132.73438 45.51875Q133.09375 44.8625 133.39062 44.659374Q133.70312 44.440624 134.07812 44.440624Q134.60938 44.440624 135.15625 44.76875L134.79688 45.753124Q134.40625 45.51875 134.03125 45.51875Q133.67188 45.51875 133.39062 45.7375Q133.125 45.940624 133.01562 46.315624Q132.82812 46.878124 132.82812 47.534374L132.82812 50.8L131.78125 50.8ZM142.82812 50.8L142.82812 50.01875Q142.23438 50.940624 141.09375 50.940624Q140.34375 50.940624 139.71875 50.534374Q139.09375 50.1125 138.75 49.378124Q138.40625 48.64375 138.40625 47.690624Q138.40625 46.76875 138.71875 46.003124Q139.03125 45.2375 139.65625 44.846874Q140.28125 44.440624 141.04688 44.440624Q141.60938 44.440624 142.04688 44.675Q142.48438 44.909374 142.76562 45.284374L142.76562 42.20625L143.8125 42.20625L143.8125 50.8L142.82812 50.8ZM139.5 47.690624Q139.5 48.89375 140.0 49.4875Q140.5 50.065624 141.1875 50.065624Q141.875 50.065624 142.35938 49.503124Q142.84375 48.940624 142.84375 47.784374Q142.84375 46.503124 142.34375 45.909374Q141.85938 45.315624 141.14062 45.315624Q140.4375 45.315624 139.96875 45.89375Q139.5 46.45625 139.5 47.690624ZM150.04688 48.8L151.14062 48.925Q150.89062 49.878124 150.1875 50.409374Q149.48438 50.940624 148.40625 50.940624Q147.04688 50.940624 146.23438 50.096874Q145.4375 49.253124 145.4375 47.7375Q145.4375 46.175 146.25 45.315624Q147.0625 44.440624 148.34375 44.440624Q149.59375 44.440624 150.375 45.284374Q151.17188 46.128124 151.17188 47.675Q151.17188 47.76875 151.17188 47.95625L146.53125 47.95625Q146.59375 48.9875 147.10938 49.534374Q147.625 50.065624 148.40625 50.065624Q148.98438 50.065624 149.39062 49.76875Q149.8125 49.45625 150.04688 48.8ZM146.59375 47.096874L150.0625 47.096874Q150.0 46.3 149.67188 45.909374Q149.15625 45.3 148.35938 45.3Q147.625 45.3 147.125 45.784374Q146.64062 46.26875 146.59375 47.096874ZM156.04688 50.8L156.04688 45.39375L155.10938 45.39375L155.10938 44.58125L156.04688 44.58125L156.04688 43.909374Q156.04688 43.284374 156.15625 42.9875Q156.3125 42.565624 156.6875 42.315624Q157.07812 42.065624 157.76562 42.065624Q158.21875 42.065624 158.75 42.175L158.59375 43.08125Q158.26562 43.034374 157.96875 43.034374Q157.48438 43.034374 157.28125 43.2375Q157.09375 43.440624 157.09375 44.003124L157.09375 44.58125L158.3125 44.58125L158.3125 45.39375L157.09375 45.39375L157.09375 50.8L156.04688 50.8ZM158.40625 47.690624Q158.40625 45.95625 159.35938 45.128124Q160.15625 44.440624 161.3125 44.440624Q162.59375 44.440624 163.40625 45.284374Q164.23438 46.1125 164.23438 47.596874Q164.23438 48.8 163.875 49.4875Q163.51562 50.175 162.8125 50.565624Q162.125 50.940624 161.3125 50.940624Q160.01562 50.940624 159.20312 50.1125Q158.40625 49.26875 158.40625 47.690624ZM159.48438 47.690624Q159.48438 48.878124 160.0 49.471874Q160.53125 50.065624 161.3125 50.065624Q162.10938 50.065624 162.625 49.471874Q163.14062 48.878124 163.14062 47.659374Q163.14062 46.503124 162.60938 45.909374Q162.09375 45.315624 161.3125 45.315624Q160.53125 45.315624 160.0 45.909374Q159.48438 46.4875 159.48438 47.690624ZM165.78125 50.8L165.78125 44.58125L166.73438 44.58125L166.73438 45.51875Q167.09375 44.8625 167.39062 44.659374Q167.70312 44.440624 168.07812 44.440624Q168.60938 44.440624 169.15625 44.76875L168.79688 45.753124Q168.40625 45.51875 168.03125 45.51875Q167.67188 45.51875 167.39062 45.7375Q167.125 45.940624 167.01562 46.315624Q166.82812 46.878124 166.82812 47.534374L166.82812 50.8L165.78125 50.8ZM169.79688 50.8L169.79688 44.58125L170.73438 44.58125L170.73438 45.45625Q171.03125 44.9875 171.51562 44.721874Q172.0 44.440624 172.625 44.440624Q173.3125 44.440624 173.75 44.721874Q174.20312 45.003124 174.375 45.51875Q175.125 44.440624 176.29688 44.440624Q177.23438 44.440624 177.71875 44.95625Q178.21875 45.45625 178.21875 46.534374L178.21875 50.8L177.17188 50.8L177.17188 46.878124Q177.17188 46.253124 177.0625 45.971874Q176.96875 45.690624 176.70312 45.51875Q176.4375 45.346874 176.0625 45.346874Q175.40625 45.346874 174.96875 45.784374Q174.54688 46.221874 174.54688 47.190624L174.54688 50.8L173.48438 50.8L173.48438 46.753124Q173.48438 46.05 173.21875 45.70625Q172.96875 45.346874 172.39062 45.346874Q171.9375 45.346874 171.5625 45.58125Q171.1875 45.815624 171.01562 46.26875Q170.84375 46.721874 170.84375 47.565624L170.84375 50.8L169.79688 50.8ZM184.85938 50.034374Q184.26562 50.534374 183.71875 50.7375Q183.1875 50.940624 182.5625 50.940624Q181.53125 50.940624 180.98438 50.440624Q180.4375 49.940624 180.4375 49.159374Q180.4375 48.70625 180.64062 48.33125Q180.84375 47.940624 181.1875 47.721874Q181.53125 47.4875 181.95312 47.378124Q182.25 47.284374 182.89062 47.20625Q184.15625 47.065624 184.76562 46.846874Q184.76562 46.628124 184.76562 46.58125Q184.76562 45.925 184.46875 45.659374Q184.0625 45.315624 183.26562 45.315624Q182.53125 45.315624 182.17188 45.58125Q181.8125 45.83125 181.64062 46.4875L180.60938 46.346874Q180.75 45.690624 181.07812 45.284374Q181.40625 44.878124 182.01562 44.659374Q182.625 44.440624 183.42188 44.440624Q184.21875 44.440624 184.71875 44.628124Q185.21875 44.815624 185.45312 45.096874Q185.6875 45.378124 185.78125 45.815624Q185.82812 46.08125 185.82812 46.784374L185.82812 48.190624Q185.82812 49.659374 185.89062 50.05Q185.96875 50.440624 186.17188 50.8L185.0625 50.8Q184.90625 50.471874 184.85938 50.034374ZM184.76562 47.675Q184.1875 47.909374 183.04688 48.08125Q182.39062 48.175 182.125 48.3Q181.85938 48.409374 181.70312 48.628124Q181.5625 48.846874 181.5625 49.128124Q181.5625 49.55 181.875 49.83125Q182.20312 50.1125 182.8125 50.1125Q183.42188 50.1125 183.89062 49.846874Q184.375 49.58125 184.59375 49.1125Q184.76562 48.753124 184.76562 48.065624L184.76562 47.675ZM190.79688 43.425L190.79688 42.20625L191.85938 42.20625L191.85938 43.425L190.79688 43.425ZM190.79688 50.8L190.79688 44.58125L191.85938 44.58125L191.85938 50.8L190.79688 50.8ZM193.79688 50.8L193.79688 44.58125L194.73438 44.58125L194.73438 45.45625Q195.42188 44.440624 196.71875 44.440624Q197.28125 44.440624 197.75 44.64375Q198.23438 44.846874 198.46875 45.175Q198.70312 45.503124 198.79688 45.940624Q198.84375 46.2375 198.84375 46.971874L198.84375 50.8L197.79688 50.8L197.79688 47.01875Q197.79688 46.3625 197.67188 46.05Q197.54688 45.7375 197.23438 45.55Q196.92188 45.346874 196.5 45.346874Q195.82812 45.346874 195.32812 45.784374Q194.84375 46.20625 194.84375 47.39375L194.84375 50.8L193.79688 50.8ZM202.51562 50.8L200.15625 44.58125L201.26562 44.58125L202.60938 48.3Q202.8125 48.909374 203.0 49.55Q203.14062 49.065624 203.39062 48.378124L204.78125 44.58125L205.85938 44.58125L203.5 50.8L202.51562 50.8ZM210.04688 48.8L211.14062 48.925Q210.89062 49.878124 210.1875 50.409374Q209.48438 50.940624 208.40625 50.940624Q207.04688 50.940624 206.23438 50.096874Q205.4375 49.253124 205.4375 47.7375Q205.4375 46.175 206.25 45.315624Q207.0625 44.440624 208.34375 44.440624Q209.59375 44.440624 210.375 45.284374Q211.17188 46.128124 211.17188 47.675Q211.17188 47.76875 211.17188 47.95625L206.53125 47.95625Q206.59375 48.9875 207.10938 49.534374Q207.625 50.065624 208.40625 50.065624Q208.98438 50.065624 209.39062 49.76875Q209.8125 49.45625 210.04688 48.8ZM206.59375 47.096874L210.0625 47.096874Q210.0 46.3 209.67188 45.909374Q209.15625 45.3 208.35938 45.3Q207.625 45.3 207.125 45.784374Q206.64062 46.26875 206.59375 47.096874ZM212.78125 50.8L212.78125 44.58125L213.73438 44.58125L213.73438 45.51875Q214.09375 44.8625 214.39062 44.659374Q214.70312 44.440624 215.07812 44.440624Q215.60938 44.440624 216.15625 44.76875L215.79688 45.753124Q215.40625 45.51875 215.03125 45.51875Q214.67188 45.51875 214.39062 45.7375Q214.125 45.940624 214.01562 46.315624Q213.82812 46.878124 213.82812 47.534374L213.82812 50.8L212.78125 50.8ZM216.375 48.940624L217.40625 48.784374Q217.5 49.409374 217.89062 49.7375Q218.29688 50.065624 219.03125 50.065624Q219.75 50.065624 220.09375 49.784374Q220.45312 49.4875 220.45312 49.08125Q220.45312 48.721874 220.14062 48.51875Q219.92188 48.378124 219.0625 48.159374Q217.90625 47.8625 217.45312 47.659374Q217.01562 47.440624 216.78125 47.065624Q216.54688 46.690624 216.54688 46.221874Q216.54688 45.815624 216.73438 45.45625Q216.92188 45.096874 217.25 44.8625Q217.5 44.690624 217.92188 44.565624Q218.34375 44.440624 218.84375 44.440624Q219.5625 44.440624 220.10938 44.659374Q220.67188 44.8625 220.9375 45.221874Q221.20312 45.58125 221.29688 46.175L220.26562 46.315624Q220.20312 45.846874 219.85938 45.58125Q219.53125 45.3 218.90625 45.3Q218.1875 45.3 217.875 45.55Q217.5625 45.784374 217.5625 46.1125Q217.5625 46.315624 217.6875 46.471874Q217.82812 46.64375 218.09375 46.753124Q218.25 46.815624 219.03125 47.01875Q220.15625 47.33125 220.59375 47.51875Q221.03125 47.70625 221.28125 48.065624Q221.53125 48.425 221.53125 48.971874Q221.53125 49.503124 221.21875 49.971874Q220.92188 50.425 220.34375 50.690624Q219.76562 50.940624 219.03125 50.940624Q217.8125 50.940624 217.17188 50.440624Q216.54688 49.925 216.375 48.940624ZM227.85938 50.034374Q227.26562 50.534374 226.71875 50.7375Q226.1875 50.940624 225.5625 50.940624Q224.53125 50.940624 223.98438 50.440624Q223.4375 49.940624 223.4375 49.159374Q223.4375 48.70625 223.64062 48.33125Q223.84375 47.940624 224.1875 47.721874Q224.53125 47.4875 224.95312 47.378124Q225.25 47.284374 225.89062 47.20625Q227.15625 47.065624 227.76562 46.846874Q227.76562 46.628124 227.76562 46.58125Q227.76562 45.925 227.46875 45.659374Q227.0625 45.315624 226.26562 45.315624Q225.53125 45.315624 225.17188 45.58125Q224.8125 45.83125 224.64062 46.4875L223.60938 46.346874Q223.75 45.690624 224.07812 45.284374Q224.40625 44.878124 225.01562 44.659374Q225.625 44.440624 226.42188 44.440624Q227.21875 44.440624 227.71875 44.628124Q228.21875 44.815624 228.45312 45.096874Q228.6875 45.378124 228.78125 45.815624Q228.82812 46.08125 228.82812 46.784374L228.82812 48.190624Q228.82812 49.659374 228.89062 50.05Q228.96875 50.440624 229.17188 50.8L228.0625 50.8Q227.90625 50.471874 227.85938 50.034374ZM227.76562 47.675Q227.1875 47.909374 226.04688 48.08125Q225.39062 48.175 225.125 48.3Q224.85938 48.409374 224.70312 48.628124Q224.5625 48.846874 224.5625 49.128124Q224.5625 49.55 224.875 49.83125Q225.20312 50.1125 225.8125 50.1125Q226.42188 50.1125 226.89062 49.846874Q227.375 49.58125 227.59375 49.1125Q227.76562 48.753124 227.76562 48.065624L227.76562 47.675ZM233.76562 50.8L233.76562 42.20625L234.82812 42.20625L234.82812 50.8L233.76562 50.8ZM240.85938 50.034374Q240.26562 50.534374 239.71875 50.7375Q239.1875 50.940624 238.5625 50.940624Q237.53125 50.940624 236.98438 50.440624Q236.4375 49.940624 236.4375 49.159374Q236.4375 48.70625 236.64062 48.33125Q236.84375 47.940624 237.1875 47.721874Q237.53125 47.4875 237.95312 47.378124Q238.25 47.284374 238.89062 47.20625Q240.15625 47.065624 240.76562 46.846874Q240.76562 46.628124 240.76562 46.58125Q240.76562 45.925 240.46875 45.659374Q240.0625 45.315624 239.26562 45.315624Q238.53125 45.315624 238.17188 45.58125Q237.8125 45.83125 237.64062 46.4875L236.60938 46.346874Q236.75 45.690624 237.07812 45.284374Q237.40625 44.878124 238.01562 44.659374Q238.625 44.440624 239.42188 44.440624Q240.21875 44.440624 240.71875 44.628124Q241.21875 44.815624 241.45312 45.096874Q241.6875 45.378124 241.78125 45.815624Q241.82812 46.08125 241.82812 46.784374L241.82812 48.190624Q241.82812 49.659374 241.89062 50.05Q241.96875 50.440624 242.17188 50.8L241.0625 50.8Q240.90625 50.471874 240.85938 50.034374ZM240.76562 47.675Q240.1875 47.909374 239.04688 48.08125Q238.39062 48.175 238.125 48.3Q237.85938 48.409374 237.70312 48.628124Q237.5625 48.846874 237.5625 49.128124Q237.5625 49.55 237.875 49.83125Q238.20312 50.1125 238.8125 50.1125Q239.42188 50.1125 239.89062 49.846874Q240.375 49.58125 240.59375 49.1125Q240.76562 48.753124 240.76562 48.065624L240.76562 47.675ZM246.79688 53.190624L246.79688 44.58125L247.75 44.58125L247.75 45.378124Q248.09375 44.909374 248.51562 44.675Q248.95312 44.440624 249.5625 44.440624Q250.35938 44.440624 250.96875 44.846874Q251.57812 45.253124 251.875 46.003124Q252.1875 46.753124 252.1875 47.64375Q252.1875 48.596874 251.84375 49.3625Q251.51562 50.128124 250.85938 50.534374Q250.20312 50.940624 249.48438 50.940624Q248.95312 50.940624 248.53125 50.721874Q248.10938 50.4875 247.84375 50.159374L247.84375 53.190624L246.79688 53.190624ZM247.75 47.721874Q247.75 48.925 248.23438 49.503124Q248.71875 50.065624 249.40625 50.065624Q250.10938 50.065624 250.60938 49.471874Q251.10938 48.878124 251.10938 47.628124Q251.10938 46.440624 250.625 45.8625Q250.14062 45.26875 249.45312 45.26875Q248.78125 45.26875 248.26562 45.89375Q247.75 46.51875 247.75 47.721874ZM253.78125 50.8L253.78125 44.58125L254.73438 44.58125L254.73438 45.51875Q255.09375 44.8625 255.39062 44.659374Q255.70312 44.440624 256.07812 44.440624Q256.60938 44.440624 257.15625 44.76875L256.79688 45.753124Q256.40625 45.51875 256.03125 45.51875Q255.67188 45.51875 255.39062 45.7375Q255.125 45.940624 255.01562 46.315624Q254.82812 46.878124 254.82812 47.534374L254.82812 50.8L253.78125 50.8ZM262.04688 48.8L263.14062 48.925Q262.89062 49.878124 262.1875 50.409374Q261.48438 50.940624 260.40625 50.940624Q259.04688 50.940624 258.23438 50.096874Q257.4375 49.253124 257.4375 47.7375Q257.4375 46.175 258.25 45.315624Q259.0625 44.440624 260.34375 44.440624Q261.59375 44.440624 262.375 45.284374Q263.17188 46.128124 263.17188 47.675Q263.17188 47.76875 263.17188 47.95625L258.53125 47.95625Q258.59375 48.9875 259.10938 49.534374Q259.625 50.065624 260.40625 50.065624Q260.98438 50.065624 261.39062 49.76875Q261.8125 49.45625 262.04688 48.8ZM258.59375 47.096874L262.0625 47.096874Q262.0 46.3 261.67188 45.909374Q261.15625 45.3 260.35938 45.3Q259.625 45.3 259.125 45.784374Q258.64062 46.26875 258.59375 47.096874ZM268.85938 48.51875L269.89062 48.659374Q269.71875 49.721874 269.01562 50.33125Q268.3125 50.940624 267.29688 50.940624Q266.01562 50.940624 265.23438 50.1125Q264.46875 49.26875 264.46875 47.70625Q264.46875 46.70625 264.79688 45.95625Q265.14062 45.190624 265.8125 44.815624Q266.5 44.440624 267.3125 44.440624Q268.3125 44.440624 268.95312 44.95625Q269.60938 45.45625 269.79688 46.409374L268.76562 46.565624Q268.625 45.940624 268.25 45.628124Q267.875 45.3 267.34375 45.3Q266.54688 45.3 266.04688 45.878124Q265.54688 46.440624 265.54688 47.675Q265.54688 48.940624 266.03125 49.503124Q266.51562 50.065624 267.28125 50.065624Q267.90625 50.065624 268.3125 49.690624Q268.73438 49.315624 268.85938 48.51875ZM270.79688 43.425L270.79688 42.20625L271.85938 42.20625L271.85938 43.425L270.79688 43.425ZM270.79688 50.8L270.79688 44.58125L271.85938 44.58125L271.85938 50.8L270.79688 50.8ZM273.375 48.940624L274.40625 48.784374Q274.5 49.409374 274.89062 49.7375Q275.29688 50.065624 276.03125 50.065624Q276.75 50.065624 277.09375 49.784374Q277.45312 49.4875 277.45312 49.08125Q277.45312 48.721874 277.14062 48.51875Q276.92188 48.378124 276.0625 48.159374Q274.90625 47.8625 274.45312 47.659374Q274.01562 47.440624 273.78125 47.065624Q273.54688 46.690624 273.54688 46.221874Q273.54688 45.815624 273.73438 45.45625Q273.92188 45.096874 274.25 44.8625Q274.5 44.690624 274.92188 44.565624Q275.34375 44.440624 275.84375 44.440624Q276.5625 44.440624 277.10938 44.659374Q277.67188 44.8625 277.9375 45.221874Q278.20312 45.58125 278.29688 46.175L277.26562 46.315624Q277.20312 45.846874 276.85938 45.58125Q276.53125 45.3 275.90625 45.3Q275.1875 45.3 274.875 45.55Q274.5625 45.784374 274.5625 46.1125Q274.5625 46.315624 274.6875 46.471874Q274.82812 46.64375 275.09375 46.753124Q275.25 46.815624 276.03125 47.01875Q277.15625 47.33125 277.59375 47.51875Q278.03125 47.70625 278.28125 48.065624Q278.53125 48.425 278.53125 48.971874Q278.53125 49.503124 278.21875 49.971874Q277.92188 50.425 277.34375 50.690624Q276.76562 50.940624 276.03125 50.940624Q274.8125 50.940624 274.17188 50.440624Q273.54688 49.925 273.375 48.940624ZM280.79688 43.425L280.79688 42.20625L281.85938 42.20625L281.85938 43.425L280.79688 43.425ZM280.79688 50.8L280.79688 44.58125L281.85938 44.58125L281.85938 50.8L280.79688 50.8ZM283.40625 47.690624Q283.40625 45.95625 284.35938 45.128124Q285.15625 44.440624 286.3125 44.440624Q287.59375 44.440624 288.40625 45.284374Q289.23438 46.1125 289.23438 47.596874Q289.23438 48.8 288.875 49.4875Q288.51562 50.175 287.8125 50.565624Q287.125 50.940624 286.3125 50.940624Q285.01562 50.940624 284.20312 50.1125Q283.40625 49.26875 283.40625 47.690624ZM284.48438 47.690624Q284.48438 48.878124 285.0 49.471874Q285.53125 50.065624 286.3125 50.065624Q287.10938 50.065624 287.625 49.471874Q288.14062 48.878124 288.14062 47.659374Q288.14062 46.503124 287.60938 45.909374Q287.09375 45.315624 286.3125 45.315624Q285.53125 45.315624 285.0 45.909374Q284.48438 46.4875 284.48438 47.690624ZM285.73438 43.8L286.51562 42.159374L287.90625 42.159374L286.60938 43.8L285.73438 43.8ZM290.79688 50.8L290.79688 44.58125L291.73438 44.58125L291.73438 45.45625Q292.42188 44.440624 293.71875 44.440624Q294.28125 44.440624 294.75 44.64375Q295.23438 44.846874 295.46875 45.175Q295.70312 45.503124 295.79688 45.940624Q295.84375 46.2375 295.84375 46.971874L295.84375 50.8L294.79688 50.8L294.79688 47.01875Q294.79688 46.3625 294.67188 46.05Q294.54688 45.7375 294.23438 45.55Q293.92188 45.346874 293.5 45.346874Q292.82812 45.346874 292.32812 45.784374Q291.84375 46.20625 291.84375 47.39375L291.84375 50.8L290.79688 50.8ZM298.0625 50.8L298.0625 49.596874L299.26562 49.596874L299.26562 50.8Q299.26562 51.45625 299.03125 51.8625Q298.79688 52.284374 298.29688 52.503124L298.0 52.05Q298.32812 51.909374 298.48438 51.6125Q298.64062 51.33125 298.67188 50.8L298.0625 50.8ZM307.82812 50.8L307.82812 50.01875Q307.23438 50.940624 306.09375 50.940624Q305.34375 50.940624 304.71875 50.534374Q304.09375 50.1125 303.75 49.378124Q303.40625 48.64375 303.40625 47.690624Q303.40625 46.76875 303.71875 46.003124Q304.03125 45.2375 304.65625 44.846874Q305.28125 44.440624 306.04688 44.440624Q306.60938 44.440624 307.04688 44.675Q307.48438 44.909374 307.76562 45.284374L307.76562 42.20625L308.8125 42.20625L308.8125 50.8L307.82812 50.8ZM304.5 47.690624Q304.5 48.89375 305.0 49.4875Q305.5 50.065624 306.1875 50.065624Q306.875 50.065624 307.35938 49.503124Q307.84375 48.940624 307.84375 47.784374Q307.84375 46.503124 307.34375 45.909374Q306.85938 45.315624 306.14062 45.315624Q305.4375 45.315624 304.96875 45.89375Q304.5 46.45625 304.5 47.690624ZM315.04688 48.8L316.14062 48.925Q315.89062 49.878124 315.1875 50.409374Q314.48438 50.940624 313.40625 50.940624Q312.04688 50.940624 311.23438 50.096874Q310.4375 49.253124 310.4375 47.7375Q310.4375 46.175 311.25 45.315624Q312.0625 44.440624 313.34375 44.440624Q314.59375 44.440624 315.375 45.284374Q316.17188 46.128124 316.17188 47.675Q316.17188 47.76875 316.17188 47.95625L311.53125 47.95625Q311.59375 48.9875 312.10938 49.534374Q312.625 50.065624 313.40625 50.065624Q313.98438 50.065624 314.39062 49.76875Q314.8125 49.45625 315.04688 48.8ZM311.59375 47.096874L315.0625 47.096874Q315.0 46.3 314.67188 45.909374Q314.15625 45.3 313.35938 45.3Q312.625 45.3 312.125 45.784374Q311.64062 46.26875 311.59375 47.096874ZM317.375 48.940624L318.40625 48.784374Q318.5 49.409374 318.89062 49.7375Q319.29688 50.065624 320.03125 50.065624Q320.75 50.065624 321.09375 49.784374Q321.45312 49.4875 321.45312 49.08125Q321.45312 48.721874 321.14062 48.51875Q320.92188 48.378124 320.0625 48.159374Q318.90625 47.8625 318.45312 47.659374Q318.01562 47.440624 317.78125 47.065624Q317.54688 46.690624 317.54688 46.221874Q317.54688 45.815624 317.73438 45.45625Q317.92188 45.096874 318.25 44.8625Q318.5 44.690624 318.92188 44.565624Q319.34375 44.440624 319.84375 44.440624Q320.5625 44.440624 321.10938 44.659374Q321.67188 44.8625 321.9375 45.221874Q322.20312 45.58125 322.29688 46.175L321.26562 46.315624Q321.20312 45.846874 320.85938 45.58125Q320.53125 45.3 319.90625 45.3Q319.1875 45.3 318.875 45.55Q318.5625 45.784374 318.5625 46.1125Q318.5625 46.315624 318.6875 46.471874Q318.82812 46.64375 319.09375 46.753124Q319.25 46.815624 320.03125 47.01875Q321.15625 47.33125 321.59375 47.51875Q322.03125 47.70625 322.28125 48.065624Q322.53125 48.425 322.53125 48.971874Q322.53125 49.503124 322.21875 49.971874Q321.92188 50.425 321.34375 50.690624Q320.76562 50.940624 320.03125 50.940624Q318.8125 50.940624 318.17188 50.440624Q317.54688 49.925 317.375 48.940624ZM327.09375 49.8625L327.25 50.784374Q326.79688 50.878124 326.45312 50.878124Q325.875 50.878124 325.5625 50.70625Q325.25 50.51875 325.10938 50.221874Q324.98438 49.925 324.98438 48.971874L324.98438 45.39375L324.21875 45.39375L324.21875 44.58125L324.98438 44.58125L324.98438 43.034374L326.03125 42.409374L326.03125 44.58125L327.09375 44.58125L327.09375 45.39375L326.03125 45.39375L326.03125 49.034374Q326.03125 49.4875 326.07812 49.6125Q326.14062 49.7375 326.26562 49.815624Q326.39062 49.89375 326.625 49.89375Q326.8125 49.89375 327.09375 49.8625ZM331.85938 50.034374Q331.26562 50.534374 330.71875 50.7375Q330.1875 50.940624 329.5625 50.940624Q328.53125 50.940624 327.98438 50.440624Q327.4375 49.940624 327.4375 49.159374Q327.4375 48.70625 327.64062 48.33125Q327.84375 47.940624 328.1875 47.721874Q328.53125 47.4875 328.95312 47.378124Q329.25 47.284374 329.89062 47.20625Q331.15625 47.065624 331.76562 46.846874Q331.76562 46.628124 331.76562 46.58125Q331.76562 45.925 331.46875 45.659374Q331.0625 45.315624 330.26562 45.315624Q329.53125 45.315624 329.17188 45.58125Q328.8125 45.83125 328.64062 46.4875L327.60938 46.346874Q327.75 45.690624 328.07812 45.284374Q328.40625 44.878124 329.01562 44.659374Q329.625 44.440624 330.42188 44.440624Q331.21875 44.440624 331.71875 44.628124Q332.21875 44.815624 332.45312 45.096874Q332.6875 45.378124 332.78125 45.815624Q332.82812 46.08125 332.82812 46.784374L332.82812 48.190624Q332.82812 49.659374 332.89062 50.05Q332.96875 50.440624 333.17188 50.8L332.0625 50.8Q331.90625 50.471874 331.85938 50.034374ZM331.76562 47.675Q331.1875 47.909374 330.04688 48.08125Q329.39062 48.175 329.125 48.3Q328.85938 48.409374 328.70312 48.628124Q328.5625 48.846874 328.5625 49.128124Q328.5625 49.55 328.875 49.83125Q329.20312 50.1125 329.8125 50.1125Q330.42188 50.1125 330.89062 49.846874Q331.375 49.58125 331.59375 49.1125Q331.76562 48.753124 331.76562 48.065624L331.76562 47.675ZM338.85938 48.51875L339.89062 48.659374Q339.71875 49.721874 339.01562 50.33125Q338.3125 50.940624 337.29688 50.940624Q336.01562 50.940624 335.23438 50.1125Q334.46875 49.26875 334.46875 47.70625Q334.46875 46.70625 334.79688 45.95625Q335.14062 45.190624 335.8125 44.815624Q336.5 44.440624 337.3125 44.440624Q338.3125 44.440624 338.95312 44.95625Q339.60938 45.45625 339.79688 46.409374L338.76562 46.565624Q338.625 45.940624 338.25 45.628124Q337.875 45.3 337.34375 45.3Q336.54688 45.3 336.04688 45.878124Q335.54688 46.440624 335.54688 47.675Q335.54688 48.940624 336.03125 49.503124Q336.51562 50.065624 337.28125 50.065624Q337.90625 50.065624 338.3125 49.690624Q338.73438 49.315624 338.85938 48.51875ZM344.85938 50.034374Q344.26562 50.534374 343.71875 50.7375Q343.1875 50.940624 342.5625 50.940624Q341.53125 50.940624 340.98438 50.440624Q340.4375 49.940624 340.4375 49.159374Q340.4375 48.70625 340.64062 48.33125Q340.84375 47.940624 341.1875 47.721874Q341.53125 47.4875 341.95312 47.378124Q342.25 47.284374 342.89062 47.20625Q344.15625 47.065624 344.76562 46.846874Q344.76562 46.628124 344.76562 46.58125Q344.76562 45.925 344.46875 45.659374Q344.0625 45.315624 343.26562 45.315624Q342.53125 45.315624 342.17188 45.58125Q341.8125 45.83125 341.64062 46.4875L340.60938 46.346874Q340.75 45.690624 341.07812 45.284374Q341.40625 44.878124 342.01562 44.659374Q342.625 44.440624 343.42188 44.440624Q344.21875 44.440624 344.71875 44.628124Q345.21875 44.815624 345.45312 45.096874Q345.6875 45.378124 345.78125 45.815624Q345.82812 46.08125 345.82812 46.784374L345.82812 48.190624Q345.82812 49.659374 345.89062 50.05Q345.96875 50.440624 346.17188 50.8L345.0625 50.8Q344.90625 50.471874 344.85938 50.034374ZM344.76562 47.675Q344.1875 47.909374 343.04688 48.08125Q342.39062 48.175 342.125 48.3Q341.85938 48.409374 341.70312 48.628124Q341.5625 48.846874 341.5625 49.128124Q341.5625 49.55 341.875 49.83125Q342.20312 50.1125 342.8125 50.1125Q343.42188 50.1125 343.89062 49.846874Q344.375 49.58125 344.59375 49.1125Q344.76562 48.753124 344.76562 48.065624L344.76562 47.675ZM347.79688 50.8L347.79688 44.58125L348.73438 44.58125L348.73438 45.45625Q349.42188 44.440624 350.71875 44.440624Q351.28125 44.440624 351.75 44.64375Q352.23438 44.846874 352.46875 45.175Q352.70312 45.503124 352.79688 45.940624Q352.84375 46.2375 352.84375 46.971874L352.84375 50.8L351.79688 50.8L351.79688 47.01875Q351.79688 46.3625 351.67188 46.05Q351.54688 45.7375 351.23438 45.55Q350.92188 45.346874 350.5 45.346874Q349.82812 45.346874 349.32812 45.784374Q348.84375 46.20625 348.84375 47.39375L348.84375 50.8L347.79688 50.8ZM358.82812 50.8L358.82812 50.01875Q358.23438 50.940624 357.09375 50.940624Q356.34375 50.940624 355.71875 50.534374Q355.09375 50.1125 354.75 49.378124Q354.40625 48.64375 354.40625 47.690624Q354.40625 46.76875 354.71875 46.003124Q355.03125 45.2375 355.65625 44.846874Q356.28125 44.440624 357.04688 44.440624Q357.60938 44.440624 358.04688 44.675Q358.48438 44.909374 358.76562 45.284374L358.76562 42.20625L359.8125 42.20625L359.8125 50.8L358.82812 50.8ZM355.5 47.690624Q355.5 48.89375 356.0 49.4875Q356.5 50.065624 357.1875 50.065624Q357.875 50.065624 358.35938 49.503124Q358.84375 48.940624 358.84375 47.784374Q358.84375 46.503124 358.34375 45.909374Q357.85938 45.315624 357.14062 45.315624Q356.4375 45.315624 355.96875 45.89375Q355.5 46.45625 355.5 47.690624ZM361.40625 47.690624Q361.40625 45.95625 362.35938 45.128124Q363.15625 44.440624 364.3125 44.440624Q365.59375 44.440624 366.40625 45.284374Q367.23438 46.1125 367.23438 47.596874Q367.23438 48.8 366.875 49.4875Q366.51562 50.175 365.8125 50.565624Q365.125 50.940624 364.3125 50.940624Q363.01562 50.940624 362.20312 50.1125Q361.40625 49.26875 361.40625 47.690624ZM362.48438 47.690624Q362.48438 48.878124 363.0 49.471874Q363.53125 50.065624 364.3125 50.065624Q365.10938 50.065624 365.625 49.471874Q366.14062 48.878124 366.14062 47.659374Q366.14062 46.503124 365.60938 45.909374Q365.09375 45.315624 364.3125 45.315624Q363.53125 45.315624 363.0 45.909374Q362.48438 46.4875 362.48438 47.690624ZM371.76562 50.8L371.76562 42.20625L372.82812 42.20625L372.82812 50.8L371.76562 50.8ZM378.85938 50.034374Q378.26562 50.534374 377.71875 50.7375Q377.1875 50.940624 376.5625 50.940624Q375.53125 50.940624 374.98438 50.440624Q374.4375 49.940624 374.4375 49.159374Q374.4375 48.70625 374.64062 48.33125Q374.84375 47.940624 375.1875 47.721874Q375.53125 47.4875 375.95312 47.378124Q376.25 47.284374 376.89062 47.20625Q378.15625 47.065624 378.76562 46.846874Q378.76562 46.628124 378.76562 46.58125Q378.76562 45.925 378.46875 45.659374Q378.0625 45.315624 377.26562 45.315624Q376.53125 45.315624 376.17188 45.58125Q375.8125 45.83125 375.64062 46.4875L374.60938 46.346874Q374.75 45.690624 375.07812 45.284374Q375.40625 44.878124 376.01562 44.659374Q376.625 44.440624 377.42188 44.440624Q378.21875 44.440624 378.71875 44.628124Q379.21875 44.815624 379.45312 45.096874Q379.6875 45.378124 379.78125 45.815624Q379.82812 46.08125 379.82812 46.784374L379.82812 48.190624Q379.82812 49.659374 379.89062 50.05Q379.96875 50.440624 380.17188 50.8L379.0625 50.8Q378.90625 50.471874 378.85938 50.034374ZM378.76562 47.675Q378.1875 47.909374 377.04688 48.08125Q376.39062 48.175 376.125 48.3Q375.85938 48.409374 375.70312 48.628124Q375.5625 48.846874 375.5625 49.128124Q375.5625 49.55 375.875 49.83125Q376.20312 50.1125 376.8125 50.1125Q377.42188 50.1125 377.89062 49.846874Q378.375 49.58125 378.59375 49.1125Q378.76562 48.753124 378.76562 48.065624L378.76562 47.675ZM384.79688 53.190624L384.79688 44.58125L385.75 44.58125L385.75 45.378124Q386.09375 44.909374 386.51562 44.675Q386.95312 44.440624 387.5625 44.440624Q388.35938 44.440624 388.96875 44.846874Q389.57812 45.253124 389.875 46.003124Q390.1875 46.753124 390.1875 47.64375Q390.1875 48.596874 389.84375 49.3625Q389.51562 50.128124 388.85938 50.534374Q388.20312 50.940624 387.48438 50.940624Q386.95312 50.940624 386.53125 50.721874Q386.10938 50.4875 385.84375 50.159374L385.84375 53.190624L384.79688 53.190624ZM385.75 47.721874Q385.75 48.925 386.23438 49.503124Q386.71875 50.065624 387.40625 50.065624Q388.10938 50.065624 388.60938 49.471874Q389.10938 48.878124 389.10938 47.628124Q389.10938 46.440624 388.625 45.8625Q388.14062 45.26875 387.45312 45.26875Q386.78125 45.26875 386.26562 45.89375Q385.75 46.51875 385.75 47.721874ZM391.78125 50.8L391.78125 44.58125L392.73438 44.58125L392.73438 45.51875Q393.09375 44.8625 393.39062 44.659374Q393.70312 44.440624 394.07812 44.440624Q394.60938 44.440624 395.15625 44.76875L394.79688 45.753124Q394.40625 45.51875 394.03125 45.51875Q393.67188 45.51875 393.39062 45.7375Q393.125 45.940624 393.01562 46.315624Q392.82812 46.878124 392.82812 47.534374L392.82812 50.8L391.78125 50.8ZM395.40625 47.690624Q395.40625 45.95625 396.35938 45.128124Q397.15625 44.440624 398.3125 44.440624Q399.59375 44.440624 400.40625 45.284374Q401.23438 46.1125 401.23438 47.596874Q401.23438 48.8 400.875 49.4875Q400.51562 50.175 399.8125 50.565624Q399.125 50.940624 398.3125 50.940624Q397.01562 50.940624 396.20312 50.1125Q395.40625 49.26875 395.40625 47.690624ZM396.48438 47.690624Q396.48438 48.878124 397.0 49.471874Q397.53125 50.065624 398.3125 50.065624Q399.10938 50.065624 399.625 49.471874Q400.14062 48.878124 400.14062 47.659374Q400.14062 46.503124 399.60938 45.909374Q399.09375 45.315624 398.3125 45.315624Q397.53125 45.315624 397.0 45.909374Q396.48438 46.4875 396.48438 47.690624ZM402.79688 53.190624L402.79688 44.58125L403.75 44.58125L403.75 45.378124Q404.09375 44.909374 404.51562 44.675Q404.95312 44.440624 405.5625 44.440624Q406.35938 44.440624 406.96875 44.846874Q407.57812 45.253124 407.875 46.003124Q408.1875 46.753124 408.1875 47.64375Q408.1875 48.596874 407.84375 49.3625Q407.51562 50.128124 406.85938 50.534374Q406.20312 50.940624 405.48438 50.940624Q404.95312 50.940624 404.53125 50.721874Q404.10938 50.4875 403.84375 50.159374L403.84375 53.190624L402.79688 53.190624ZM403.75 47.721874Q403.75 48.925 404.23438 49.503124Q404.71875 50.065624 405.40625 50.065624Q406.10938 50.065624 406.60938 49.471874Q407.10938 48.878124 407.10938 47.628124Q407.10938 46.440624 406.625 45.8625Q406.14062 45.26875 405.45312 45.26875Q404.78125 45.26875 404.26562 45.89375Q403.75 46.51875 403.75 47.721874ZM409.40625 47.690624Q409.40625 45.95625 410.35938 45.128124Q411.15625 44.440624 412.3125 44.440624Q413.59375 44.440624 414.40625 45.284374Q415.23438 46.1125 415.23438 47.596874Q415.23438 48.8 414.875 49.4875Q414.51562 50.175 413.8125 50.565624Q413.125 50.940624 412.3125 50.940624Q411.01562 50.940624 410.20312 50.1125Q409.40625 49.26875 409.40625 47.690624ZM410.48438 47.690624Q410.48438 48.878124 411.0 49.471874Q411.53125 50.065624 412.3125 50.065624Q413.10938 50.065624 413.625 49.471874Q414.14062 48.878124 414.14062 47.659374Q414.14062 46.503124 413.60938 45.909374Q413.09375 45.315624 412.3125 45.315624Q411.53125 45.315624 411.0 45.909374Q410.48438 46.4875 410.48438 47.690624ZM416.78125 50.8L416.78125 44.58125L417.73438 44.58125L417.73438 45.51875Q418.09375 44.8625 418.39062 44.659374Q418.70312 44.440624 419.07812 44.440624Q419.60938 44.440624 420.15625 44.76875L419.79688 45.753124Q419.40625 45.51875 419.03125 45.51875Q418.67188 45.51875 418.39062 45.7375Q418.125 45.940624 418.01562 46.315624Q417.82812 46.878124 417.82812 47.534374L417.82812 50.8L416.78125 50.8ZM424.85938 48.51875L425.89062 48.659374Q425.71875 49.721874 425.01562 50.33125Q424.3125 50.940624 423.29688 50.940624Q422.01562 50.940624 421.23438 50.1125Q420.46875 49.26875 420.46875 47.70625Q420.46875 46.70625 420.79688 45.95625Q421.14062 45.190624 421.8125 44.815624Q422.5 44.440624 423.3125 44.440624Q424.3125 44.440624 424.95312 44.95625Q425.60938 45.45625 425.79688 46.409374L424.76562 46.565624Q424.625 45.940624 424.25 45.628124Q423.875 45.3 423.34375 45.3Q422.54688 45.3 422.04688 45.878124Q421.54688 46.440624 421.54688 47.675Q421.54688 48.940624 422.03125 49.503124Q422.51562 50.065624 423.28125 50.065624Q423.90625 50.065624 424.3125 49.690624Q424.73438 49.315624 424.85938 48.51875ZM426.79688 43.425L426.79688 42.20625L427.85938 42.20625L427.85938 43.425L426.79688 43.425ZM426.79688 50.8L426.79688 44.58125L427.85938 44.58125L427.85938 50.8L426.79688 50.8ZM429.40625 47.690624Q429.40625 45.95625 430.35938 45.128124Q431.15625 44.440624 432.3125 44.440624Q433.59375 44.440624 434.40625 45.284374Q435.23438 46.1125 435.23438 47.596874Q435.23438 48.8 434.875 49.4875Q434.51562 50.175 433.8125 50.565624Q433.125 50.940624 432.3125 50.940624Q431.01562 50.940624 430.20312 50.1125Q429.40625 49.26875 429.40625 47.690624ZM430.48438 47.690624Q430.48438 48.878124 431.0 49.471874Q431.53125 50.065624 432.3125 50.065624Q433.10938 50.065624 433.625 49.471874Q434.14062 48.878124 434.14062 47.659374Q434.14062 46.503124 433.60938 45.909374Q433.09375 45.315624 432.3125 45.315624Q431.53125 45.315624 431.0 45.909374Q430.48438 46.4875 430.48438 47.690624ZM431.73438 43.8L432.51562 42.159374L433.90625 42.159374L432.60938 43.8L431.73438 43.8ZM436.79688 50.8L436.79688 44.58125L437.73438 44.58125L437.73438 45.45625Q438.42188 44.440624 439.71875 44.440624Q440.28125 44.440624 440.75 44.64375Q441.23438 44.846874 441.46875 45.175Q441.70312 45.503124 441.79688 45.940624Q441.84375 46.2375 441.84375 46.971874L441.84375 50.8L440.79688 50.8L440.79688 47.01875Q440.79688 46.3625 440.67188 46.05Q440.54688 45.7375 440.23438 45.55Q439.92188 45.346874 439.5 45.346874Q438.82812 45.346874 438.32812 45.784374Q437.84375 46.20625 437.84375 47.39375L437.84375 50.8L436.79688 50.8ZM450.82812 50.8L450.82812 50.01875Q450.23438 50.940624 449.09375 50.940624Q448.34375 50.940624 447.71875 50.534374Q447.09375 50.1125 446.75 49.378124Q446.40625 48.64375 446.40625 47.690624Q446.40625 46.76875 446.71875 46.003124Q447.03125 45.2375 447.65625 44.846874Q448.28125 44.440624 449.04688 44.440624Q449.60938 44.440624 450.04688 44.675Q450.48438 44.909374 450.76562 45.284374L450.76562 42.20625L451.8125 42.20625L451.8125 50.8L450.82812 50.8ZM447.5 47.690624Q447.5 48.89375 448.0 49.4875Q448.5 50.065624 449.1875 50.065624Q449.875 50.065624 450.35938 49.503124Q450.84375 48.940624 450.84375 47.784374Q450.84375 46.503124 450.34375 45.909374Q449.85938 45.315624 449.14062 45.315624Q448.4375 45.315624 447.96875 45.89375Q447.5 46.45625 447.5 47.690624ZM458.04688 48.8L459.14062 48.925Q458.89062 49.878124 458.1875 50.409374Q457.48438 50.940624 456.40625 50.940624Q455.04688 50.940624 454.23438 50.096874Q453.4375 49.253124 453.4375 47.7375Q453.4375 46.175 454.25 45.315624Q455.0625 44.440624 456.34375 44.440624Q457.59375 44.440624 458.375 45.284374Q459.17188 46.128124 459.17188 47.675Q459.17188 47.76875 459.17188 47.95625L454.53125 47.95625Q454.59375 48.9875 455.10938 49.534374Q455.625 50.065624 456.40625 50.065624Q456.98438 50.065624 457.39062 49.76875Q457.8125 49.45625 458.04688 48.8ZM454.59375 47.096874L458.0625 47.096874Q458.0 46.3 457.67188 45.909374Q457.15625 45.3 456.35938 45.3Q455.625 45.3 455.125 45.784374Q454.64062 46.26875 454.59375 47.096874ZM468.04688 48.8L469.14062 48.925Q468.89062 49.878124 468.1875 50.409374Q467.48438 50.940624 466.40625 50.940624Q465.04688 50.940624 464.23438 50.096874Q463.4375 49.253124 463.4375 47.7375Q463.4375 46.175 464.25 45.315624Q465.0625 44.440624 466.34375 44.440624Q467.59375 44.440624 468.375 45.284374Q469.17188 46.128124 469.17188 47.675Q469.17188 47.76875 469.17188 47.95625L464.53125 47.95625Q464.59375 48.9875 465.10938 49.534374Q465.625 50.065624 466.40625 50.065624Q466.98438 50.065624 467.39062 49.76875Q467.8125 49.45625 468.04688 48.8ZM464.59375 47.096874L468.0625 47.096874Q468.0 46.3 467.67188 45.909374Q467.15625 45.3 466.35938 45.3Q465.625 45.3 465.125 45.784374Q464.64062 46.26875 464.59375 47.096874ZM470.78125 50.8L470.78125 44.58125L471.73438 44.58125L471.73438 45.51875Q472.09375 44.8625 472.39062 44.659374Q472.70312 44.440624 473.07812 44.440624Q473.60938 44.440624 474.15625 44.76875L473.79688 45.753124Q473.40625 45.51875 473.03125 45.51875Q472.67188 45.51875 472.39062 45.7375Q472.125 45.940624 472.01562 46.315624Q471.82812 46.878124 471.82812 47.534374L471.82812 50.8L470.78125 50.8ZM474.78125 50.8L474.78125 44.58125L475.73438 44.58125L475.73438 45.51875Q476.09375 44.8625 476.39062 44.659374Q476.70312 44.440624 477.07812 44.440624Q477.60938 44.440624 478.15625 44.76875L477.79688 45.753124Q477.40625 45.51875 477.03125 45.51875Q476.67188 45.51875 476.39062 45.7375Q476.125 45.940624 476.01562 46.315624Q475.82812 46.878124 475.82812 47.534374L475.82812 50.8L474.78125 50.8ZM478.40625 47.690624Q478.40625 45.95625 479.35938 45.128124Q480.15625 44.440624 481.3125 44.440624Q482.59375 44.440624 483.40625 45.284374Q484.23438 46.1125 484.23438 47.596874Q484.23438 48.8 483.875 49.4875Q483.51562 50.175 482.8125 50.565624Q482.125 50.940624 481.3125 50.940624Q480.01562 50.940624 479.20312 50.1125Q478.40625 49.26875 478.40625 47.690624ZM479.48438 47.690624Q479.48438 48.878124 480.0 49.471874Q480.53125 50.065624 481.3125 50.065624Q482.10938 50.065624 482.625 49.471874Q483.14062 48.878124 483.14062 47.659374Q483.14062 46.503124 482.60938 45.909374Q482.09375 45.315624 481.3125 45.315624Q480.53125 45.315624 480.0 45.909374Q479.48438 46.4875 479.48438 47.690624ZM485.78125 50.8L485.78125 44.58125L486.73438 44.58125L486.73438 45.51875Q487.09375 44.8625 487.39062 44.659374Q487.70312 44.440624 488.07812 44.440624Q488.60938 44.440624 489.15625 44.76875L488.79688 45.753124Q488.40625 45.51875 488.03125 45.51875Q487.67188 45.51875 487.39062 45.7375Q487.125 45.940624 487.01562 46.315624Q486.82812 46.878124 486.82812 47.534374L486.82812 50.8L485.78125 50.8ZM494.04688 48.8L495.14062 48.925Q494.89062 49.878124 494.1875 50.409374Q493.48438 50.940624 492.40625 50.940624Q491.04688 50.940624 490.23438 50.096874Q489.4375 49.253124 489.4375 47.7375Q489.4375 46.175 490.25 45.315624Q491.0625 44.440624 492.34375 44.440624Q493.59375 44.440624 494.375 45.284374Q495.17188 46.128124 495.17188 47.675Q495.17188 47.76875 495.17188 47.95625L490.53125 47.95625Q490.59375 48.9875 491.10938 49.534374Q491.625 50.065624 492.40625 50.065624Q492.98438 50.065624 493.39062 49.76875Q493.8125 49.45625 494.04688 48.8ZM490.59375 47.096874L494.0625 47.096874Q494.0 46.3 493.67188 45.909374Q493.15625 45.3 492.35938 45.3Q491.625 45.3 491.125 45.784374Q490.64062 46.26875 490.59375 47.096874ZM496.375 48.940624L497.40625 48.784374Q497.5 49.409374 497.89062 49.7375Q498.29688 50.065624 499.03125 50.065624Q499.75 50.065624 500.09375 49.784374Q500.45312 49.4875 500.45312 49.08125Q500.45312 48.721874 500.14062 48.51875Q499.92188 48.378124 499.0625 48.159374Q497.90625 47.8625 497.45312 47.659374Q497.01562 47.440624 496.78125 47.065624Q496.54688 46.690624 496.54688 46.221874Q496.54688 45.815624 496.73438 45.45625Q496.92188 45.096874 497.25 44.8625Q497.5 44.690624 497.92188 44.565624Q498.34375 44.440624 498.84375 44.440624Q499.5625 44.440624 500.10938 44.659374Q500.67188 44.8625 500.9375 45.221874Q501.20312 45.58125 501.29688 46.175L500.26562 46.315624Q500.20312 45.846874 499.85938 45.58125Q499.53125 45.3 498.90625 45.3Q498.1875 45.3 497.875 45.55Q497.5625 45.784374 497.5625 46.1125Q497.5625 46.315624 497.6875 46.471874Q497.82812 46.64375 498.09375 46.753124Q498.25 46.815624 499.03125 47.01875Q500.15625 47.33125 500.59375 47.51875Q501.03125 47.70625 501.28125 48.065624Q501.53125 48.425 501.53125 48.971874Q501.53125 49.503124 501.21875 49.971874Q500.92188 50.425 500.34375 50.690624Q499.76562 50.940624 499.03125 50.940624Q497.8125 50.940624 497.17188 50.440624Q496.54688 49.925 496.375 48.940624ZM504.09375 50.8L504.09375 49.596874L505.29688 49.596874L505.29688 50.8L504.09375 50.8Z" fill-rule="nonzero"/><path fill="#000000" d="M233.78125 31.55L233.78125 23.221874L230.79688 23.221874L230.79688 21.534374L238.76562 21.534374L238.76562 23.221874L235.79688 23.221874L235.79688 31.55L233.78125 31.55ZM240.9375 26.503124L239.20312 26.190624Q239.48438 25.14375 240.20312 24.64375Q240.92188 24.128124 242.34375 24.128124Q243.625 24.128124 244.25 24.440624Q244.89062 24.7375 245.14062 25.20625Q245.39062 25.675 245.39062 26.925L245.375 29.159374Q245.375 30.128124 245.46875 30.58125Q245.5625 31.034374 245.8125 31.55L243.92188 31.55Q243.84375 31.3625 243.73438 30.9875Q243.6875 30.815624 243.65625 30.753124Q243.17188 31.2375 242.60938 31.4875Q242.04688 31.721874 241.40625 31.721874Q240.29688 31.721874 239.64062 31.1125Q239.0 30.503124 239.0 29.565624Q239.0 28.95625 239.29688 28.471874Q239.59375 27.9875 240.10938 27.7375Q240.64062 27.471874 241.64062 27.284374Q242.98438 27.034374 243.51562 26.815624L243.51562 26.628124Q243.51562 26.065624 243.23438 25.83125Q242.96875 25.596874 242.20312 25.596874Q241.6875 25.596874 241.40625 25.8Q241.125 26.003124 240.9375 26.503124ZM243.51562 28.065624Q243.14062 28.190624 242.34375 28.3625Q241.54688 28.534374 241.29688 28.690624Q240.92188 28.95625 240.92188 29.3625Q240.92188 29.76875 241.21875 30.065624Q241.51562 30.3625 241.98438 30.3625Q242.5 30.3625 242.98438 30.01875Q243.32812 29.753124 243.4375 29.378124Q243.51562 29.14375 243.51562 28.440624L243.51562 28.065624ZM246.82812 29.471874L248.75 29.190624Q248.875 29.7375 249.25 30.034374Q249.625 30.33125 250.3125 30.33125Q251.04688 30.33125 251.42188 30.05Q251.6875 29.8625 251.6875 29.534374Q251.6875 29.315624 251.54688 29.175Q251.40625 29.034374 250.90625 28.925Q248.57812 28.409374 247.95312 27.9875Q247.09375 27.39375 247.09375 26.346874Q247.09375 25.409374 247.82812 24.76875Q248.57812 24.128124 250.15625 24.128124Q251.64062 24.128124 252.35938 24.6125Q253.09375 25.096874 253.35938 26.05L251.54688 26.378124Q251.4375 25.95625 251.10938 25.7375Q250.78125 25.503124 250.1875 25.503124Q249.42188 25.503124 249.09375 25.721874Q248.875 25.8625 248.875 26.1125Q248.875 26.315624 249.07812 26.45625Q249.32812 26.64375 250.85938 27.003124Q252.40625 27.346874 253.01562 27.846874Q253.60938 28.3625 253.60938 29.284374Q253.60938 30.284374 252.76562 31.003124Q251.9375 31.721874 250.3125 31.721874Q248.82812 31.721874 247.95312 31.1125Q247.09375 30.503124 246.82812 29.471874ZM256.9375 26.503124L255.20312 26.190624Q255.48438 25.14375 256.20312 24.64375Q256.92188 24.128124 258.34375 24.128124Q259.625 24.128124 260.25 24.440624Q260.89062 24.7375 261.14062 25.20625Q261.39062 25.675 261.39062 26.925L261.375 29.159374Q261.375 30.128124 261.46875 30.58125Q261.5625 31.034374 261.8125 31.55L259.92188 31.55Q259.84375 31.3625 259.73438 30.9875Q259.6875 30.815624 259.65625 30.753124Q259.17188 31.2375 258.60938 31.4875Q258.04688 31.721874 257.40625 31.721874Q256.29688 31.721874 255.64062 31.1125Q255.0 30.503124 255.0 29.565624Q255.0 28.95625 255.29688 28.471874Q255.59375 27.9875 256.10938 27.7375Q256.64062 27.471874 257.64062 27.284374Q258.98438 27.034374 259.51562 26.815624L259.51562 26.628124Q259.51562 26.065624 259.23438 25.83125Q258.96875 25.596874 258.20312 25.596874Q257.6875 25.596874 257.40625 25.8Q257.125 26.003124 256.9375 26.503124ZM259.51562 28.065624Q259.14062 28.190624 258.34375 28.3625Q257.54688 28.534374 257.29688 28.690624Q256.92188 28.95625 256.92188 29.3625Q256.92188 29.76875 257.21875 30.065624Q257.51562 30.3625 257.98438 30.3625Q258.5 30.3625 258.98438 30.01875Q259.32812 29.753124 259.4375 29.378124Q259.51562 29.14375 259.51562 28.440624L259.51562 28.065624ZM274.15625 31.55L272.375 31.55L272.375 30.4875Q271.9375 31.1125 271.32812 31.425Q270.71875 31.721874 270.10938 31.721874Q268.85938 31.721874 267.96875 30.70625Q267.07812 29.690624 267.07812 27.89375Q267.07812 26.05 267.9375 25.096874Q268.8125 24.128124 270.14062 24.128124Q271.35938 24.128124 272.25 25.14375L272.25 21.534374L274.15625 21.534374L274.15625 31.55ZM269.03125 27.76875Q269.03125 28.925 269.35938 29.440624Q269.82812 30.190624 270.65625 30.190624Q271.3125 30.190624 271.78125 29.628124Q272.25 29.065624 272.25 27.940624Q272.25 26.690624 271.79688 26.14375Q271.34375 25.596874 270.64062 25.596874Q269.95312 25.596874 269.48438 26.14375Q269.03125 26.675 269.03125 27.76875ZM280.70312 29.2375L282.625 29.565624Q282.25 30.6125 281.45312 31.175Q280.65625 31.721874 279.46875 31.721874Q277.57812 31.721874 276.65625 30.471874Q275.9375 29.4875 275.9375 27.971874Q275.9375 26.175 276.875 25.159374Q277.82812 24.128124 279.28125 24.128124Q280.89062 24.128124 281.82812 25.20625Q282.76562 26.26875 282.71875 28.471874L277.90625 28.471874Q277.9375 29.33125 278.375 29.815624Q278.82812 30.284374 279.48438 30.284374Q279.9375 30.284374 280.23438 30.034374Q280.54688 29.784374 280.70312 29.2375ZM280.8125 27.3Q280.79688 26.45625 280.39062 26.034374Q279.98438 25.596874 279.39062 25.596874Q278.76562 25.596874 278.34375 26.05Q277.9375 26.51875 277.95312 27.3L280.8125 27.3ZM293.70312 29.2375L295.625 29.565624Q295.25 30.6125 294.45312 31.175Q293.65625 31.721874 292.46875 31.721874Q290.57812 31.721874 289.65625 30.471874Q288.9375 29.4875 288.9375 27.971874Q288.9375 26.175 289.875 25.159374Q290.82812 24.128124 292.28125 24.128124Q293.89062 24.128124 294.82812 25.20625Q295.76562 26.26875 295.71875 28.471874L290.90625 28.471874Q290.9375 29.33125 291.375 29.815624Q291.82812 30.284374 292.48438 30.284374Q292.9375 30.284374 293.23438 30.034374Q293.54688 29.784374 293.70312 29.2375ZM293.8125 27.3Q293.79688 26.45625 293.39062 26.034374Q292.98438 25.596874 292.39062 25.596874Q291.76562 25.596874 291.34375 26.05Q290.9375 26.51875 290.95312 27.3L293.8125 27.3ZM300.34375 31.55L298.42188 31.55L298.42188 24.284374L300.20312 24.284374L300.20312 25.315624Q300.67188 24.596874 301.03125 24.3625Q301.39062 24.128124 301.85938 24.128124Q302.51562 24.128124 303.125 24.4875L302.53125 26.159374Q302.04688 25.846874 301.625 25.846874Q301.21875 25.846874 300.9375 26.08125Q300.67188 26.3 300.5 26.878124Q300.34375 27.45625 300.34375 29.3L300.34375 31.55ZM306.34375 31.55L304.42188 31.55L304.42188 24.284374L306.20312 24.284374L306.20312 25.315624Q306.67188 24.596874 307.03125 24.3625Q307.39062 24.128124 307.85938 24.128124Q308.51562 24.128124 309.125 24.4875L308.53125 26.159374Q308.04688 25.846874 307.625 25.846874Q307.21875 25.846874 306.9375 26.08125Q306.67188 26.3 306.5 26.878124Q306.34375 27.45625 306.34375 29.3L306.34375 31.55ZM310.0625 27.815624Q310.0625 26.8625 310.53125 25.971874Q311.0 25.065624 311.85938 24.596874Q312.73438 24.128124 313.79688 24.128124Q315.45312 24.128124 316.5 25.20625Q317.54688 26.26875 317.54688 27.89375Q317.54688 29.55 316.48438 30.64375Q315.42188 31.721874 313.8125 31.721874Q312.8125 31.721874 311.90625 31.26875Q311.0 30.815624 310.53125 29.940624Q310.0625 29.065624 310.0625 27.815624ZM312.03125 27.925Q312.03125 29.003124 312.54688 29.58125Q313.0625 30.14375 313.8125 30.14375Q314.5625 30.14375 315.0625 29.58125Q315.57812 29.003124 315.57812 27.909374Q315.57812 26.846874 315.0625 26.26875Q314.5625 25.690624 313.8125 25.690624Q313.0625 25.690624 312.54688 26.26875Q312.03125 26.846874 312.03125 27.925ZM321.34375 31.55L319.42188 31.55L319.42188 24.284374L321.20312 24.284374L321.20312 25.315624Q321.67188 24.596874 322.03125 24.3625Q322.39062 24.128124 322.85938 24.128124Q323.51562 24.128124 324.125 24.4875L323.53125 26.159374Q323.04688 25.846874 322.625 25.846874Q322.21875 25.846874 321.9375 26.08125Q321.67188 26.3 321.5 26.878124Q321.34375 27.45625 321.34375 29.3L321.34375 31.55ZM329.45312 24.284374L331.23438 24.284374L331.23438 25.3625Q331.59375 24.815624 332.1875 24.471874Q332.78125 24.128124 333.5 24.128124Q334.76562 24.128124 335.64062 25.128124Q336.53125 26.1125 336.53125 27.878124Q336.53125 29.690624 335.64062 30.70625Q334.75 31.721874 333.48438 31.721874Q332.89062 31.721874 332.39062 31.4875Q331.90625 31.2375 331.375 30.659374L331.375 34.315624L329.45312 34.315624L329.45312 24.284374ZM331.34375 27.8Q331.34375 29.01875 331.82812 29.6125Q332.32812 30.190624 333.01562 30.190624Q333.6875 30.190624 334.125 29.659374Q334.57812 29.1125 334.57812 27.89375Q334.57812 26.753124 334.10938 26.20625Q333.65625 25.64375 332.98438 25.64375Q332.28125 25.64375 331.8125 26.190624Q331.34375 26.7375 331.34375 27.8ZM338.0625 27.815624Q338.0625 26.8625 338.53125 25.971874Q339.0 25.065624 339.85938 24.596874Q340.73438 24.128124 341.79688 24.128124Q343.45312 24.128124 344.5 25.20625Q345.54688 26.26875 345.54688 27.89375Q345.54688 29.55 344.48438 30.64375Q343.42188 31.721874 341.8125 31.721874Q340.8125 31.721874 339.90625 31.26875Q339.0 30.815624 338.53125 29.940624Q338.0625 29.065624 338.0625 27.815624ZM340.03125 27.925Q340.03125 29.003124 340.54688 29.58125Q341.0625 30.14375 341.8125 30.14375Q342.5625 30.14375 343.0625 29.58125Q343.57812 29.003124 343.57812 27.909374Q343.57812 26.846874 343.0625 26.26875Q342.5625 25.690624 341.8125 25.690624Q341.0625 25.690624 340.54688 26.26875Q340.03125 26.846874 340.03125 27.925ZM349.34375 31.55L347.42188 31.55L347.42188 24.284374L349.20312 24.284374L349.20312 25.315624Q349.67188 24.596874 350.03125 24.3625Q350.39062 24.128124 350.85938 24.128124Q351.51562 24.128124 352.125 24.4875L351.53125 26.159374Q351.04688 25.846874 350.625 25.846874Q350.21875 25.846874 349.9375 26.08125Q349.67188 26.3 349.5 26.878124Q349.34375 27.45625 349.34375 29.3L349.34375 31.55ZM357.45312 31.55L357.45312 21.534374L359.48438 21.534374L359.48438 31.55L357.45312 31.55ZM370.5625 31.55L368.35938 31.55L367.48438 29.26875L363.46875 29.26875L362.64062 31.55L360.5 31.55L364.40625 21.534374L366.54688 21.534374L370.5625 31.55ZM366.82812 27.58125L365.45312 23.8625L364.09375 27.58125L366.82812 27.58125Z" fill-rule="nonzero"/></svg>